<svg version="1.1" xmlns="http://www.w3.org/2000/svg" viewBox="0 0 668.3899049655404 638.6287136513838" width="2005.1697148966211" height="1915.8861409541514">
  <!-- svg-source:excalidraw -->
  
  <defs>
    <style class="style-fonts">
      @font-face {
        font-family: "Virgil";
        src: url("https://excalidraw.com/Virgil.woff2");
      }
      @font-face {
        font-family: "Cascadia";
        src: url("https://excalidraw.com/Cascadia.woff2");
      }
    </style>
  </defs>
  <rect x="0" y="0" width="668.3899049655404" height="638.6287136513838" fill="#ebfbee"></rect><g stroke-linecap="round" transform="translate(74.60970625361006 78.96992126027544) rotate(0 107 100)"><path d="M7.86 8.16 C7.86 8.16, 7.86 8.16, 7.86 8.16 M7.86 8.16 C7.86 8.16, 7.86 8.16, 7.86 8.16 M3.66 19.09 C8.15 13.93, 12.63 8.77, 18.1 2.48 M3.66 19.09 C6.65 15.65, 9.64 12.21, 18.1 2.48 M2.75 26.24 C11.1 16.62, 19.46 7.01, 25.05 0.58 M2.75 26.24 C8.2 19.96, 13.65 13.69, 25.05 0.58 M2.48 32.64 C8.2 26.06, 13.91 19.49, 30.7 0.18 M2.48 32.64 C9.14 24.98, 15.8 17.31, 30.7 0.18 M2.88 38.28 C10.92 29.03, 18.97 19.77, 34.37 2.05 M2.88 38.28 C10.22 29.84, 17.55 21.4, 34.37 2.05 M2.62 44.68 C11.55 34.4, 20.49 24.12, 39.36 2.41 M2.62 44.68 C14.24 31.31, 25.86 17.94, 39.36 2.41 M2.36 51.07 C15.89 35.5, 29.43 19.93, 45 2.02 M2.36 51.07 C15.28 36.2, 28.21 21.33, 45 2.02 M2.75 56.72 C15.3 42.29, 27.84 27.86, 49.99 2.38 M2.75 56.72 C14.71 42.96, 26.67 29.2, 49.99 2.38 M2.49 63.11 C18.67 44.5, 34.85 25.89, 55.63 1.98 M2.49 63.11 C22.4 40.21, 42.31 17.31, 55.63 1.98 M2.23 69.51 C18.24 51.09, 34.25 32.68, 60.62 2.34 M2.23 69.51 C21.53 47.31, 40.83 25.11, 60.62 2.34 M2.62 75.16 C17.39 58.17, 32.15 41.19, 66.26 1.95 M2.62 75.16 C24.59 49.89, 46.55 24.63, 66.26 1.95 M2.36 81.55 C19.28 62.09, 36.2 42.62, 71.25 2.31 M2.36 81.55 C23.72 56.99, 45.07 32.42, 71.25 2.31 M2.1 87.95 C31.08 54.61, 60.07 21.27, 76.89 1.91 M2.1 87.95 C23.82 62.96, 45.55 37.97, 76.89 1.91 M2.49 93.59 C28.55 63.62, 54.61 33.64, 81.88 2.27 M2.49 93.59 C20.88 72.45, 39.26 51.3, 81.88 2.27 M2.23 99.99 C30.42 67.57, 58.6 35.15, 87.52 1.88 M2.23 99.99 C24.8 74.03, 47.36 48.08, 87.52 1.88 M2.63 105.64 C24.41 80.58, 46.19 55.52, 92.51 2.24 M2.63 105.64 C21.79 83.6, 40.95 61.56, 92.51 2.24 M2.37 112.03 C30.32 79.87, 58.28 47.71, 98.15 1.85 M2.37 112.03 C31.06 79.02, 59.76 46.01, 98.15 1.85 M2.1 118.43 C30.4 85.88, 58.69 53.34, 103.14 2.21 M2.1 118.43 C27.46 89.26, 52.82 60.09, 103.14 2.21 M2.5 124.07 C42.34 78.24, 82.19 32.4, 108.78 1.81 M2.5 124.07 C24.36 98.93, 46.21 73.79, 108.78 1.81 M2.24 130.47 C36.29 91.3, 70.34 52.13, 113.77 2.17 M2.24 130.47 C26.69 102.34, 51.15 74.21, 113.77 2.17 M1.98 136.87 C43.61 88.98, 85.24 41.09, 119.41 1.78 M1.98 136.87 C45.56 86.73, 89.14 36.6, 119.41 1.78 M2.37 142.51 C45.58 92.81, 88.78 43.11, 124.4 2.14 M2.37 142.51 C35.37 104.55, 68.37 66.59, 124.4 2.14 M2.11 148.91 C37.61 108.07, 73.11 67.23, 130.04 1.74 M2.11 148.91 C48.48 95.57, 94.85 42.23, 130.04 1.74 M2.5 154.55 C33.53 118.87, 64.55 83.18, 135.03 2.1 M2.5 154.55 C33.64 118.73, 64.78 82.91, 135.03 2.1 M2.24 160.95 C38.59 119.14, 74.94 77.32, 140.67 1.71 M2.24 160.95 C47.13 109.32, 92.01 57.69, 140.67 1.71 M0.67 168.86 C47.79 114.65, 94.91 60.44, 145.66 2.07 M0.67 168.86 C32.79 131.91, 64.91 94.96, 145.66 2.07 M1.06 174.5 C45.99 122.82, 90.91 71.14, 150.65 2.43 M1.06 174.5 C57.78 109.26, 114.5 44.01, 150.65 2.43 M3.43 177.88 C61.26 111.35, 119.09 44.83, 156.29 2.03 M3.43 177.88 C36.58 139.74, 69.74 101.6, 156.29 2.03 M3.82 183.52 C43.69 137.66, 83.56 91.8, 161.28 2.39 M3.82 183.52 C39.73 142.21, 75.64 100.9, 161.28 2.39 M4.87 188.41 C56.31 129.24, 107.75 70.06, 166.92 2 M4.87 188.41 C51.21 135.11, 97.54 81.8, 166.92 2 M7.89 191.04 C49.8 142.83, 91.71 94.62, 171.91 2.36 M7.89 191.04 C65.28 125.02, 122.67 59, 171.91 2.36 M10.25 194.42 C50.01 148.68, 89.76 102.95, 177.55 1.96 M10.25 194.42 C72.44 122.88, 134.62 51.35, 177.55 1.96 M13.93 196.28 C66.99 135.25, 120.05 74.21, 183.19 1.57 M13.93 196.28 C48.08 157, 82.23 117.72, 183.19 1.57 M17.6 198.15 C52.74 157.73, 87.88 117.31, 188.18 1.93 M17.6 198.15 C67.98 140.21, 118.35 82.26, 188.18 1.93 M20.62 200.78 C73.07 140.44, 125.52 80.1, 192.51 3.04 M20.62 200.78 C58.23 157.51, 95.84 114.25, 192.51 3.04 M26.27 200.38 C71.06 148.86, 115.85 97.33, 197.5 3.4 M26.27 200.38 C87.23 130.25, 148.2 60.12, 197.5 3.4 M31.25 200.74 C96.16 126.08, 161.06 51.42, 201.83 4.52 M31.25 200.74 C67.83 158.67, 104.4 116.59, 201.83 4.52 M34.93 202.61 C71.51 160.53, 108.09 118.45, 204.85 7.14 M34.93 202.61 C91.22 137.86, 147.51 73.11, 204.85 7.14 M40.57 202.22 C101.02 132.68, 161.47 63.14, 207.87 9.77 M40.57 202.22 C104.15 129.08, 167.73 55.94, 207.87 9.77 M45.56 202.58 C86.7 155.25, 127.84 107.93, 210.23 13.15 M45.56 202.58 C91.09 150.19, 136.63 97.81, 210.23 13.15 M50.54 202.94 C105.64 139.56, 160.74 76.17, 211.93 17.28 M50.54 202.94 C96.58 149.98, 142.61 97.03, 211.93 17.28 M56.19 202.54 C106.77 144.36, 157.34 86.18, 214.3 20.66 M56.19 202.54 C107.65 143.35, 159.11 84.15, 214.3 20.66 M61.17 202.9 C105.3 152.14, 149.43 101.38, 215.35 25.55 M61.17 202.9 C103.99 153.65, 146.81 104.4, 215.35 25.55 M66.82 202.51 C118.77 142.74, 170.73 82.97, 214.43 32.7 M66.82 202.51 C109.6 153.29, 152.38 104.08, 214.43 32.7 M71.8 202.87 C105.17 164.49, 138.53 126.11, 214.83 38.34 M71.8 202.87 C112.32 156.26, 152.84 109.65, 214.83 38.34 M77.45 202.48 C110.97 163.92, 144.48 125.36, 214.56 44.74 M77.45 202.48 C113.03 161.54, 148.62 120.6, 214.56 44.74 M82.43 202.84 C120.92 158.56, 159.41 114.28, 214.3 51.14 M82.43 202.84 C109.6 171.59, 136.76 140.34, 214.3 51.14 M88.08 202.44 C121.96 163.46, 155.85 124.48, 214.7 56.78 M88.08 202.44 C113.73 172.94, 139.37 143.43, 214.7 56.78 M93.06 202.8 C122.59 168.84, 152.11 134.88, 214.44 63.18 M93.06 202.8 C132.85 157.03, 172.64 111.26, 214.44 63.18 M98.71 202.41 C129.31 167.2, 159.92 131.99, 214.83 68.82 M98.71 202.41 C141.1 153.64, 183.5 104.86, 214.83 68.82 M103.69 202.77 C141.44 159.35, 179.18 115.93, 214.57 75.22 M103.69 202.77 C137.95 163.36, 172.21 123.95, 214.57 75.22 M109.34 202.37 C135.2 172.63, 161.05 142.88, 214.31 81.62 M109.34 202.37 C137.82 169.6, 166.31 136.83, 214.31 81.62 M114.32 202.73 C145.28 167.12, 176.23 131.51, 214.7 87.26 M114.32 202.73 C153.26 157.95, 192.19 113.16, 214.7 87.26 M119.97 202.34 C139.04 180.4, 158.1 158.47, 214.44 93.66 M119.97 202.34 C150.56 167.15, 181.15 131.95, 214.44 93.66 M124.95 202.7 C155.87 167.13, 186.79 131.57, 214.83 99.3 M124.95 202.7 C159.19 163.32, 193.42 123.94, 214.83 99.3 M130.6 202.3 C154.77 174.5, 178.93 146.7, 214.57 105.7 M130.6 202.3 C147.64 182.7, 164.68 163.1, 214.57 105.7 M135.58 202.66 C160.45 174.06, 185.32 145.45, 214.31 112.1 M135.58 202.66 C157.83 177.07, 180.08 151.48, 214.31 112.1 M141.23 202.27 C158.41 182.5, 175.6 162.73, 214.71 117.74 M141.23 202.27 C160.87 179.67, 180.52 157.07, 214.71 117.74 M146.22 202.63 C171.09 174.01, 195.97 145.39, 214.45 124.14 M146.22 202.63 C164.35 181.77, 182.48 160.91, 214.45 124.14 M151.86 202.23 C173.37 177.49, 194.89 152.74, 214.84 129.78 M151.86 202.23 C174.14 176.6, 196.43 150.96, 214.84 129.78 M156.85 202.59 C174.32 182.49, 191.8 162.38, 214.58 136.18 M156.85 202.59 C173.08 183.92, 189.31 165.25, 214.58 136.18 M162.49 202.2 C177.22 185.25, 191.96 168.3, 214.32 142.58 M162.49 202.2 C182.04 179.7, 201.6 157.21, 214.32 142.58 M167.48 202.56 C177.61 190.9, 187.74 179.25, 214.71 148.22 M167.48 202.56 C179.65 188.55, 191.83 174.54, 214.71 148.22 M172.46 202.92 C185.37 188.08, 198.27 173.23, 214.45 154.62 M172.46 202.92 C186.35 186.94, 200.24 170.97, 214.45 154.62 M178.11 202.53 C187.52 191.7, 196.93 180.87, 214.84 160.26 M178.11 202.53 C189.23 189.73, 200.35 176.94, 214.84 160.26 M183.75 202.13 C190.77 194.05, 197.79 185.98, 214.58 166.66 M183.75 202.13 C192.55 192.01, 201.34 181.89, 214.58 166.66 M190.7 200.23 C197.41 192.51, 204.12 184.79, 216.95 170.04 M190.7 200.23 C198.61 191.14, 206.51 182.04, 216.95 170.04 M197 199.08 C201.47 193.94, 205.93 188.81, 216.03 177.19 M197 199.08 C204.43 190.53, 211.85 181.99, 216.03 177.19" stroke="#ffc9c9" stroke-width="0.5" fill="none"></path><path d="M32 0 M32 0 C78.98 0, 125.95 0, 182 0 M32 0 C79.46 0, 126.92 0, 182 0 M182 0 C203.33 0, 214 10.67, 214 32 M182 0 C203.33 0, 214 10.67, 214 32 M214 32 C214 80.89, 214 129.79, 214 168 M214 32 C214 72.29, 214 112.59, 214 168 M214 168 C214 189.33, 203.33 200, 182 200 M214 168 C214 189.33, 203.33 200, 182 200 M182 200 C137.48 200, 92.96 200, 32 200 M182 200 C139.48 200, 96.96 200, 32 200 M32 200 C10.67 200, 0 189.33, 0 168 M32 200 C10.67 200, 0 189.33, 0 168 M0 168 C0 130.19, 0 92.37, 0 32 M0 168 C0 140.31, 0 112.62, 0 32 M0 32 C0 10.67, 10.67 0, 32 0 M0 32 C0 10.67, 10.67 0, 32 0" stroke="#000000" stroke-width="1" fill="none"></path></g><g stroke-linecap="round" transform="translate(375.60970625361006 78.96992126027544) rotate(0 107 100)"><path d="M7.86 8.16 C7.86 8.16, 7.86 8.16, 7.86 8.16 M7.86 8.16 C7.86 8.16, 7.86 8.16, 7.86 8.16 M3.66 19.09 C7.79 14.33, 11.92 9.58, 18.1 2.48 M3.66 19.09 C9.05 12.89, 14.44 6.69, 18.1 2.48 M2.75 26.24 C11.02 16.72, 19.3 7.2, 25.05 0.58 M2.75 26.24 C10.48 17.34, 18.22 8.44, 25.05 0.58 M2.48 32.64 C12.99 20.55, 23.5 8.46, 30.7 0.18 M2.48 32.64 C8.37 25.87, 14.25 19.1, 30.7 0.18 M2.88 38.28 C12.01 27.78, 21.13 17.28, 34.37 2.05 M2.88 38.28 C10.84 29.12, 18.8 19.96, 34.37 2.05 M2.62 44.68 C11.12 34.9, 19.62 25.12, 39.36 2.41 M2.62 44.68 C14.91 30.53, 27.21 16.39, 39.36 2.41 M2.36 51.07 C17.27 33.92, 32.19 16.76, 45 2.02 M2.36 51.07 C18.79 32.17, 35.22 13.27, 45 2.02 M2.75 56.72 C15.79 41.71, 28.84 26.71, 49.99 2.38 M2.75 56.72 C13.51 44.34, 24.27 31.96, 49.99 2.38 M2.49 63.11 C16 47.57, 29.52 32.03, 55.63 1.98 M2.49 63.11 C18.05 45.22, 33.6 27.32, 55.63 1.98 M2.23 69.51 C24.14 44.31, 46.04 19.11, 60.62 2.34 M2.23 69.51 C15.89 53.8, 29.55 38.08, 60.62 2.34 M2.62 75.16 C22.44 52.36, 42.26 29.56, 66.26 1.95 M2.62 75.16 C18.15 57.29, 33.68 39.43, 66.26 1.95 M2.36 81.55 C26.57 53.71, 50.78 25.86, 71.25 2.31 M2.36 81.55 C20.95 60.17, 39.53 38.79, 71.25 2.31 M2.1 87.95 C27.08 59.22, 52.05 30.49, 76.89 1.91 M2.1 87.95 C26.66 59.7, 51.21 31.45, 76.89 1.91 M2.49 93.59 C24.91 67.8, 47.33 42.01, 81.88 2.27 M2.49 93.59 C28.07 64.17, 53.64 34.76, 81.88 2.27 M2.23 99.99 C31.17 66.7, 60.11 33.41, 87.52 1.88 M2.23 99.99 C32.53 65.15, 62.82 30.3, 87.52 1.88 M2.63 105.64 C20.65 84.9, 38.67 64.17, 92.51 2.24 M2.63 105.64 C33.92 69.64, 65.21 33.64, 92.51 2.24 M2.37 112.03 C26.28 84.52, 50.2 57.01, 98.15 1.85 M2.37 112.03 C36.31 72.99, 70.25 33.94, 98.15 1.85 M2.1 118.43 C41.78 72.79, 81.45 27.16, 103.14 2.21 M2.1 118.43 C40.02 74.82, 77.93 31.21, 103.14 2.21 M2.5 124.07 C44.15 76.17, 85.79 28.26, 108.78 1.81 M2.5 124.07 C31.83 90.33, 61.17 56.58, 108.78 1.81 M2.24 130.47 C35.76 91.91, 69.28 53.35, 113.77 2.17 M2.24 130.47 C24.68 104.65, 47.12 78.84, 113.77 2.17 M1.98 136.87 C48.64 83.19, 95.3 29.51, 119.41 1.78 M1.98 136.87 C36.1 97.62, 70.21 58.37, 119.41 1.78 M2.37 142.51 C29.28 111.55, 56.2 80.59, 124.4 2.14 M2.37 142.51 C38.27 101.22, 74.17 59.92, 124.4 2.14 M2.11 148.91 C40.8 104.4, 79.49 59.9, 130.04 1.74 M2.11 148.91 C39.05 106.42, 75.98 63.93, 130.04 1.74 M2.5 154.55 C29.5 123.5, 56.49 92.45, 135.03 2.1 M2.5 154.55 C41.27 109.96, 80.04 65.36, 135.03 2.1 M2.24 160.95 C36.56 121.47, 70.88 82, 140.67 1.71 M2.24 160.95 C55.07 100.18, 107.89 39.42, 140.67 1.71 M0.67 168.86 C52.25 109.52, 103.83 50.19, 145.66 2.07 M0.67 168.86 C44.89 117.99, 89.11 67.12, 145.66 2.07 M1.06 174.5 C57.82 109.21, 114.57 43.93, 150.65 2.43 M1.06 174.5 C31.06 139.99, 61.06 105.48, 150.65 2.43 M3.43 177.88 C54.96 118.6, 106.48 59.33, 156.29 2.03 M3.43 177.88 C35.61 140.86, 67.8 103.83, 156.29 2.03 M3.82 183.52 C58.49 120.63, 113.16 57.74, 161.28 2.39 M3.82 183.52 C66.37 111.57, 128.92 39.61, 161.28 2.39 M4.87 188.41 C47.47 139.41, 90.07 90.4, 166.92 2 M4.87 188.41 C62.98 121.57, 121.09 54.72, 166.92 2 M7.89 191.04 C41.72 152.12, 75.55 113.2, 171.91 2.36 M7.89 191.04 C64.27 126.18, 120.64 61.33, 171.91 2.36 M10.25 194.42 C44.2 155.37, 78.14 116.32, 177.55 1.96 M10.25 194.42 C55.21 142.7, 100.17 90.98, 177.55 1.96 M13.93 196.28 C67.45 134.72, 120.96 73.15, 183.19 1.57 M13.93 196.28 C53.24 151.06, 92.55 105.84, 183.19 1.57 M17.6 198.15 C65.64 142.89, 113.68 87.63, 188.18 1.93 M17.6 198.15 C74.06 133.21, 130.52 68.26, 188.18 1.93 M20.62 200.78 C62.1 153.06, 103.58 105.34, 192.51 3.04 M20.62 200.78 C85.16 126.54, 149.7 52.3, 192.51 3.04 M26.27 200.38 C91.03 125.88, 155.8 51.37, 197.5 3.4 M26.27 200.38 C78.59 140.19, 130.92 79.99, 197.5 3.4 M31.25 200.74 C74.02 151.55, 116.78 102.36, 201.83 4.52 M31.25 200.74 C83.5 140.64, 135.75 80.54, 201.83 4.52 M34.93 202.61 C73.44 158.31, 111.94 114.01, 204.85 7.14 M34.93 202.61 C72.85 158.99, 110.76 115.37, 204.85 7.14 M40.57 202.22 C77.04 160.26, 113.52 118.3, 207.87 9.77 M40.57 202.22 C87.08 148.72, 133.59 95.22, 207.87 9.77 M45.56 202.58 C97.48 142.85, 149.4 83.12, 210.23 13.15 M45.56 202.58 C92.42 148.67, 139.28 94.76, 210.23 13.15 M50.54 202.94 C102.46 143.22, 154.38 83.49, 211.93 17.28 M50.54 202.94 C109.31 135.33, 168.08 67.73, 211.93 17.28 M56.19 202.54 C117.46 132.06, 178.73 61.57, 214.3 20.66 M56.19 202.54 C113.28 136.87, 170.37 71.2, 214.3 20.66 M61.17 202.9 C114.33 141.76, 167.48 80.62, 215.35 25.55 M61.17 202.9 C116.46 139.31, 171.74 75.72, 215.35 25.55 M66.82 202.51 C117.18 144.57, 167.55 86.63, 214.43 32.7 M66.82 202.51 C110.24 152.56, 153.66 102.6, 214.43 32.7 M71.8 202.87 C125.44 141.17, 179.07 79.47, 214.83 38.34 M71.8 202.87 C111.2 157.55, 150.6 112.22, 214.83 38.34 M77.45 202.48 C122.55 150.59, 167.66 98.7, 214.56 44.74 M77.45 202.48 C131.71 140.06, 185.96 77.64, 214.56 44.74 M82.43 202.84 C122.64 156.58, 162.85 110.33, 214.3 51.14 M82.43 202.84 C115.32 165.01, 148.2 127.18, 214.3 51.14 M88.08 202.44 C120.76 164.85, 153.44 127.25, 214.7 56.78 M88.08 202.44 C132.12 151.77, 176.17 101.11, 214.7 56.78 M93.06 202.8 C133.31 156.5, 173.56 110.21, 214.44 63.18 M93.06 202.8 C121.59 169.98, 150.12 137.16, 214.44 63.18 M98.71 202.41 C132.45 163.59, 166.2 124.77, 214.83 68.82 M98.71 202.41 C133.9 161.92, 169.09 121.44, 214.83 68.82 M103.69 202.77 C132.18 170, 160.66 137.23, 214.57 75.22 M103.69 202.77 C137.81 163.53, 171.92 124.28, 214.57 75.22 M109.34 202.37 C145.36 160.94, 181.38 119.5, 214.31 81.62 M109.34 202.37 C149.66 155.99, 189.98 109.61, 214.31 81.62 M114.32 202.73 C153.2 158.01, 192.08 113.28, 214.7 87.26 M114.32 202.73 C150.72 160.86, 187.12 118.99, 214.7 87.26 M119.97 202.34 C156.54 160.27, 193.11 118.2, 214.44 93.66 M119.97 202.34 C156.25 160.6, 192.54 118.86, 214.44 93.66 M124.95 202.7 C146 178.49, 167.04 154.29, 214.83 99.3 M124.95 202.7 C144.34 180.4, 163.72 158.1, 214.83 99.3 M130.6 202.3 C159.86 168.64, 189.13 134.97, 214.57 105.7 M130.6 202.3 C152.97 176.57, 175.34 150.84, 214.57 105.7 M135.58 202.66 C152.36 183.36, 169.14 164.06, 214.31 112.1 M135.58 202.66 C159.43 175.24, 183.27 147.81, 214.31 112.1 M141.23 202.27 C156.52 184.68, 171.8 167.1, 214.71 117.74 M141.23 202.27 C160.68 179.89, 180.13 157.51, 214.71 117.74 M146.22 202.63 C169.75 175.55, 193.28 148.48, 214.45 124.14 M146.22 202.63 C172.18 172.76, 198.15 142.89, 214.45 124.14 M151.86 202.23 C170.83 180.41, 189.8 158.58, 214.84 129.78 M151.86 202.23 C175.99 174.47, 200.13 146.71, 214.84 129.78 M156.85 202.59 C177.33 179.03, 197.82 155.46, 214.58 136.18 M156.85 202.59 C169.86 187.62, 182.88 172.64, 214.58 136.18 M162.49 202.2 C173.8 189.19, 185.1 176.18, 214.32 142.58 M162.49 202.2 C177.83 184.55, 193.18 166.9, 214.32 142.58 M167.48 202.56 C185.08 182.3, 202.69 162.05, 214.71 148.22 M167.48 202.56 C183.28 184.38, 199.09 166.19, 214.71 148.22 M172.46 202.92 C185.21 188.25, 197.96 173.59, 214.45 154.62 M172.46 202.92 C182.87 190.94, 193.29 178.96, 214.45 154.62 M178.11 202.53 C186.68 192.66, 195.26 182.8, 214.84 160.26 M178.11 202.53 C186.38 193, 194.66 183.48, 214.84 160.26 M183.75 202.13 C194.76 189.46, 205.77 176.8, 214.58 166.66 M183.75 202.13 C194.66 189.57, 205.58 177.02, 214.58 166.66 M190.7 200.23 C200.57 188.87, 210.44 177.52, 216.95 170.04 M190.7 200.23 C199.5 190.11, 208.29 179.99, 216.95 170.04 M197 199.08 C203.33 191.8, 209.66 184.51, 216.03 177.19 M197 199.08 C202.7 192.53, 208.39 185.98, 216.03 177.19" stroke="#a5d8ff" stroke-width="0.5" fill="none"></path><path d="M32 0 M32 0 C83.71 0, 135.42 0, 182 0 M32 0 C80.3 0, 128.59 0, 182 0 M182 0 C203.33 0, 214 10.67, 214 32 M182 0 C203.33 0, 214 10.67, 214 32 M214 32 C214 75.14, 214 118.29, 214 168 M214 32 C214 75.2, 214 118.41, 214 168 M214 168 C214 189.33, 203.33 200, 182 200 M214 168 C214 189.33, 203.33 200, 182 200 M182 200 C146.68 200, 111.35 200, 32 200 M182 200 C141.33 200, 100.65 200, 32 200 M32 200 C10.67 200, 0 189.33, 0 168 M32 200 C10.67 200, 0 189.33, 0 168 M0 168 C0 138.54, 0 109.08, 0 32 M0 168 C0 127.82, 0 87.65, 0 32 M0 32 C0 10.67, 10.67 0, 32 0 M0 32 C0 10.67, 10.67 0, 32 0" stroke="#000000" stroke-width="1" fill="none"></path></g><g stroke-linecap="round" transform="translate(374.60970625361006 365.96992126027544) rotate(0 107 100)"><path d="M7.86 8.16 C7.86 8.16, 7.86 8.16, 7.86 8.16 M7.86 8.16 C7.86 8.16, 7.86 8.16, 7.86 8.16 M3.66 19.09 C7.31 14.89, 10.96 10.69, 18.1 2.48 M3.66 19.09 C7 15.24, 10.34 11.4, 18.1 2.48 M2.75 26.24 C10.21 17.65, 17.68 9.06, 25.05 0.58 M2.75 26.24 C10.55 17.26, 18.35 8.29, 25.05 0.58 M2.48 32.64 C13.35 20.13, 24.22 7.63, 30.7 0.18 M2.48 32.64 C10.27 23.67, 18.06 14.71, 30.7 0.18 M2.88 38.28 C10.05 30.03, 17.22 21.78, 34.37 2.05 M2.88 38.28 C10.89 29.07, 18.89 19.86, 34.37 2.05 M2.62 44.68 C13.37 32.3, 24.13 19.93, 39.36 2.41 M2.62 44.68 C16.4 28.82, 30.19 12.96, 39.36 2.41 M2.36 51.07 C12.33 39.6, 22.31 28.12, 45 2.02 M2.36 51.07 C15.64 35.8, 28.92 20.52, 45 2.02 M2.75 56.72 C14.28 43.46, 25.8 30.2, 49.99 2.38 M2.75 56.72 C19.35 37.62, 35.95 18.53, 49.99 2.38 M2.49 63.11 C16.83 46.62, 31.17 30.13, 55.63 1.98 M2.49 63.11 C20.24 42.7, 37.98 22.29, 55.63 1.98 M2.23 69.51 C21.4 47.46, 40.57 25.41, 60.62 2.34 M2.23 69.51 C18.72 50.54, 35.21 31.57, 60.62 2.34 M2.62 75.16 C23.12 51.57, 43.63 27.99, 66.26 1.95 M2.62 75.16 C24.22 50.32, 45.81 25.48, 66.26 1.95 M2.36 81.55 C26.83 53.41, 51.29 25.26, 71.25 2.31 M2.36 81.55 C16.17 65.66, 29.99 49.78, 71.25 2.31 M2.1 87.95 C28.14 58, 54.18 28.04, 76.89 1.91 M2.1 87.95 C20.77 66.47, 39.45 44.99, 76.89 1.91 M2.49 93.59 C30.62 61.23, 58.75 28.87, 81.88 2.27 M2.49 93.59 C33.66 57.74, 64.83 21.88, 81.88 2.27 M2.23 99.99 C34.24 63.18, 66.24 26.36, 87.52 1.88 M2.23 99.99 C35.65 61.55, 69.07 23.1, 87.52 1.88 M2.63 105.64 C27.43 77.1, 52.24 48.56, 92.51 2.24 M2.63 105.64 C29.64 74.56, 56.65 43.49, 92.51 2.24 M2.37 112.03 C21.64 89.86, 40.92 67.69, 98.15 1.85 M2.37 112.03 C40.43 68.25, 78.49 24.47, 98.15 1.85 M2.1 118.43 C31.46 84.66, 60.81 50.9, 103.14 2.21 M2.1 118.43 C24.39 92.8, 46.67 67.17, 103.14 2.21 M2.5 124.07 C33.77 88.11, 65.03 52.14, 108.78 1.81 M2.5 124.07 C34.64 87.1, 66.78 50.13, 108.78 1.81 M2.24 130.47 C34.44 93.43, 66.64 56.39, 113.77 2.17 M2.24 130.47 C24.96 104.34, 47.67 78.2, 113.77 2.17 M1.98 136.87 C36.33 97.35, 70.68 57.83, 119.41 1.78 M1.98 136.87 C31.09 103.38, 60.2 69.89, 119.41 1.78 M2.37 142.51 C48.94 88.95, 95.5 35.38, 124.4 2.14 M2.37 142.51 C45.78 92.58, 89.19 42.64, 124.4 2.14 M2.11 148.91 C41.13 104.03, 80.14 59.14, 130.04 1.74 M2.11 148.91 C50.65 93.07, 99.19 37.23, 130.04 1.74 M2.5 154.55 C29.08 123.98, 55.66 93.41, 135.03 2.1 M2.5 154.55 C47.18 103.16, 91.85 51.77, 135.03 2.1 M2.24 160.95 C31.39 127.42, 60.53 93.89, 140.67 1.71 M2.24 160.95 C50.31 105.66, 98.37 50.37, 140.67 1.71 M0.67 168.86 C58.27 102.6, 115.86 36.34, 145.66 2.07 M0.67 168.86 C38.78 125.01, 76.9 81.17, 145.66 2.07 M1.06 174.5 C54.7 112.8, 108.34 51.1, 150.65 2.43 M1.06 174.5 C31.92 139.01, 62.77 103.52, 150.65 2.43 M3.43 177.88 C55.97 117.44, 108.51 57, 156.29 2.03 M3.43 177.88 C34.44 142.2, 65.46 106.52, 156.29 2.03 M3.82 183.52 C46.14 134.85, 88.45 86.17, 161.28 2.39 M3.82 183.52 C53.61 126.25, 103.39 68.98, 161.28 2.39 M4.87 188.41 C42.51 145.12, 80.14 101.82, 166.92 2 M4.87 188.41 C50.51 135.91, 96.15 83.41, 166.92 2 M7.89 191.04 C62.18 128.59, 116.46 66.14, 171.91 2.36 M7.89 191.04 C47.47 145.5, 87.05 99.97, 171.91 2.36 M10.25 194.42 C73.07 122.16, 135.88 49.9, 177.55 1.96 M10.25 194.42 C73.53 121.62, 136.81 48.82, 177.55 1.96 M13.93 196.28 C65.65 136.78, 117.38 77.28, 183.19 1.57 M13.93 196.28 C56.36 147.47, 98.8 98.65, 183.19 1.57 M17.6 198.15 C69.85 138.05, 122.1 77.95, 188.18 1.93 M17.6 198.15 C56.26 153.68, 94.92 109.21, 188.18 1.93 M20.62 200.78 C58.98 156.65, 97.34 112.53, 192.51 3.04 M20.62 200.78 C58.1 157.67, 95.57 114.56, 192.51 3.04 M26.27 200.38 C73.87 145.62, 121.47 90.86, 197.5 3.4 M26.27 200.38 C80.26 138.27, 134.25 76.17, 197.5 3.4 M31.25 200.74 C79.79 144.9, 128.34 89.06, 201.83 4.52 M31.25 200.74 C86.12 137.62, 140.99 74.5, 201.83 4.52 M34.93 202.61 C96.8 131.44, 158.67 60.26, 204.85 7.14 M34.93 202.61 C100.78 126.86, 166.62 51.11, 204.85 7.14 M40.57 202.22 C100.98 132.73, 161.38 63.24, 207.87 9.77 M40.57 202.22 C98.25 135.87, 155.92 69.52, 207.87 9.77 M45.56 202.58 C104.6 134.66, 163.65 66.73, 210.23 13.15 M45.56 202.58 C101.74 137.94, 157.93 73.31, 210.23 13.15 M50.54 202.94 C98.02 148.32, 145.5 93.71, 211.93 17.28 M50.54 202.94 C111.07 133.31, 171.59 63.69, 211.93 17.28 M56.19 202.54 C99.74 152.44, 143.3 102.33, 214.3 20.66 M56.19 202.54 C108.2 142.71, 160.21 82.88, 214.3 20.66 M61.17 202.9 C122.18 132.72, 183.19 62.54, 215.35 25.55 M61.17 202.9 C108.18 148.83, 155.19 94.75, 215.35 25.55 M66.82 202.51 C103.63 160.16, 140.44 117.82, 214.43 32.7 M66.82 202.51 C104.92 158.68, 143.02 114.85, 214.43 32.7 M71.8 202.87 C121.55 145.64, 171.3 88.41, 214.83 38.34 M71.8 202.87 C119.23 148.31, 166.65 93.76, 214.83 38.34 M77.45 202.48 C109.68 165.4, 141.91 128.32, 214.56 44.74 M77.45 202.48 C117.29 156.64, 157.14 110.8, 214.56 44.74 M82.43 202.84 C122.4 156.86, 162.36 110.89, 214.3 51.14 M82.43 202.84 C116.31 163.87, 150.19 124.9, 214.3 51.14 M88.08 202.44 C127.03 157.63, 165.99 112.81, 214.7 56.78 M88.08 202.44 C131.53 152.46, 174.98 102.48, 214.7 56.78 M93.06 202.8 C139.68 149.17, 186.3 95.54, 214.44 63.18 M93.06 202.8 C140.07 148.72, 187.09 94.64, 214.44 63.18 M98.71 202.41 C140.81 153.97, 182.92 105.53, 214.83 68.82 M98.71 202.41 C143.66 150.7, 188.61 98.99, 214.83 68.82 M103.69 202.77 C146.28 153.78, 188.86 104.79, 214.57 75.22 M103.69 202.77 C129.65 172.91, 155.61 143.05, 214.57 75.22 M109.34 202.37 C131.97 176.33, 154.61 150.29, 214.31 81.62 M109.34 202.37 C145.92 160.29, 182.5 118.21, 214.31 81.62 M114.32 202.73 C141.06 171.97, 167.8 141.21, 214.7 87.26 M114.32 202.73 C135.72 178.12, 157.11 153.52, 214.7 87.26 M119.97 202.34 C148.58 169.42, 177.19 136.51, 214.44 93.66 M119.97 202.34 C139.62 179.73, 159.28 157.11, 214.44 93.66 M124.95 202.7 C148.75 175.32, 172.55 147.95, 214.83 99.3 M124.95 202.7 C155.96 167.03, 186.96 131.37, 214.83 99.3 M130.6 202.3 C162.56 165.54, 194.52 128.77, 214.57 105.7 M130.6 202.3 C155.9 173.2, 181.19 144.1, 214.57 105.7 M135.58 202.66 C165.75 167.96, 195.92 133.26, 214.31 112.1 M135.58 202.66 C163.52 170.53, 191.46 138.39, 214.31 112.1 M141.23 202.27 C157.8 183.21, 174.37 164.15, 214.71 117.74 M141.23 202.27 C157.26 183.83, 173.29 165.39, 214.71 117.74 M146.22 202.63 C166.41 179.39, 186.61 156.15, 214.45 124.14 M146.22 202.63 C171.65 173.37, 197.09 144.11, 214.45 124.14 M151.86 202.23 C172.93 177.99, 194.01 153.74, 214.84 129.78 M151.86 202.23 C170.98 180.24, 190.1 158.24, 214.84 129.78 M156.85 202.59 C171.16 186.12, 185.48 169.65, 214.58 136.18 M156.85 202.59 C170.32 187.09, 183.8 171.59, 214.58 136.18 M162.49 202.2 C174.17 188.77, 185.84 175.33, 214.32 142.58 M162.49 202.2 C180.99 180.91, 199.5 159.62, 214.32 142.58 M167.48 202.56 C184.2 183.33, 200.91 164.09, 214.71 148.22 M167.48 202.56 C185.24 182.13, 203 161.69, 214.71 148.22 M172.46 202.92 C186.53 186.73, 200.6 170.55, 214.45 154.62 M172.46 202.92 C186.43 186.85, 200.4 170.78, 214.45 154.62 M178.11 202.53 C189.1 189.88, 200.09 177.23, 214.84 160.26 M178.11 202.53 C190.77 187.96, 203.44 173.39, 214.84 160.26 M183.75 202.13 C193.68 190.71, 203.6 179.29, 214.58 166.66 M183.75 202.13 C191.13 193.64, 198.51 185.15, 214.58 166.66 M190.7 200.23 C196.99 193, 203.27 185.77, 216.95 170.04 M190.7 200.23 C198.27 191.53, 205.83 182.83, 216.95 170.04 M197 199.08 C203.93 191.11, 210.86 183.14, 216.03 177.19 M197 199.08 C201.58 193.81, 206.16 188.54, 216.03 177.19" stroke="#ffec99" stroke-width="0.5" fill="none"></path><path d="M32 0 M32 0 C77.07 0, 122.14 0, 182 0 M32 0 C70.95 0, 109.91 0, 182 0 M182 0 C203.33 0, 214 10.67, 214 32 M182 0 C203.33 0, 214 10.67, 214 32 M214 32 C214 80.67, 214 129.34, 214 168 M214 32 C214 66.67, 214 101.34, 214 168 M214 168 C214 189.33, 203.33 200, 182 200 M214 168 C214 189.33, 203.33 200, 182 200 M182 200 C131.63 200, 81.26 200, 32 200 M182 200 C124.78 200, 67.56 200, 32 200 M32 200 C10.67 200, 0 189.33, 0 168 M32 200 C10.67 200, 0 189.33, 0 168 M0 168 C0 127.11, 0 86.21, 0 32 M0 168 C0 117.87, 0 67.74, 0 32 M0 32 C0 10.67, 10.67 0, 32 0 M0 32 C0 10.67, 10.67 0, 32 0" stroke="#000000" stroke-width="1" fill="none"></path></g><g stroke-linecap="round" transform="translate(75.60970625361006 367.96992126027544) rotate(0 107 100)"><path d="M7.86 8.16 C7.86 8.16, 7.86 8.16, 7.86 8.16 M7.86 8.16 C7.86 8.16, 7.86 8.16, 7.86 8.16 M3.66 19.09 C7.52 14.65, 11.38 10.21, 18.1 2.48 M3.66 19.09 C8.92 13.03, 14.19 6.98, 18.1 2.48 M2.75 26.24 C9.96 17.94, 17.18 9.64, 25.05 0.58 M2.75 26.24 C8.89 19.17, 15.04 12.1, 25.05 0.58 M2.48 32.64 C9.38 24.7, 16.27 16.77, 30.7 0.18 M2.48 32.64 C10.49 23.43, 18.49 14.22, 30.7 0.18 M2.88 38.28 C9.79 30.33, 16.69 22.39, 34.37 2.05 M2.88 38.28 C9.89 30.22, 16.9 22.15, 34.37 2.05 M2.62 44.68 C10.44 35.68, 18.25 26.69, 39.36 2.41 M2.62 44.68 C16.25 29, 29.87 13.32, 39.36 2.41 M2.36 51.07 C19.37 31.5, 36.38 11.93, 45 2.02 M2.36 51.07 C13.79 37.92, 25.22 24.77, 45 2.02 M2.75 56.72 C16.74 40.63, 30.73 24.53, 49.99 2.38 M2.75 56.72 C13.59 44.24, 24.44 31.77, 49.99 2.38 M2.49 63.11 C13.17 50.83, 23.85 38.55, 55.63 1.98 M2.49 63.11 C21.77 40.93, 41.06 18.75, 55.63 1.98 M2.23 69.51 C21.08 47.83, 39.93 26.14, 60.62 2.34 M2.23 69.51 C18.76 50.5, 35.28 31.49, 60.62 2.34 M2.62 75.16 C16.53 59.16, 30.43 43.17, 66.26 1.95 M2.62 75.16 C23.51 51.13, 44.4 27.1, 66.26 1.95 M2.36 81.55 C24.82 55.72, 47.28 29.88, 71.25 2.31 M2.36 81.55 C21.33 59.74, 40.29 37.92, 71.25 2.31 M2.1 87.95 C31.98 53.58, 61.86 19.2, 76.89 1.91 M2.1 87.95 C28.7 57.35, 55.3 26.75, 76.89 1.91 M2.49 93.59 C21.82 71.37, 41.14 49.14, 81.88 2.27 M2.49 93.59 C31.91 59.76, 61.32 25.92, 81.88 2.27 M2.23 99.99 C31.8 65.98, 61.37 31.97, 87.52 1.88 M2.23 99.99 C28.42 69.87, 54.6 39.75, 87.52 1.88 M2.63 105.64 C22.17 83.15, 41.72 60.67, 92.51 2.24 M2.63 105.64 C25.39 79.45, 48.15 53.27, 92.51 2.24 M2.37 112.03 C23.17 88.1, 43.98 64.16, 98.15 1.85 M2.37 112.03 C22.9 88.41, 43.44 64.79, 98.15 1.85 M2.1 118.43 C31.94 84.11, 61.78 49.78, 103.14 2.21 M2.1 118.43 C25.16 91.91, 48.21 65.4, 103.14 2.21 M2.5 124.07 C26.22 96.79, 49.94 69.5, 108.78 1.81 M2.5 124.07 C42.92 77.58, 83.34 31.08, 108.78 1.81 M2.24 130.47 C38.91 88.28, 75.59 46.09, 113.77 2.17 M2.24 130.47 C37.98 89.36, 73.72 48.24, 113.77 2.17 M1.98 136.87 C40.87 92.13, 79.76 47.38, 119.41 1.78 M1.98 136.87 C34.57 99.37, 67.17 61.88, 119.41 1.78 M2.37 142.51 C35.87 103.98, 69.37 65.44, 124.4 2.14 M2.37 142.51 C48.2 89.79, 94.04 37.06, 124.4 2.14 M2.11 148.91 C48.5 95.54, 94.9 42.17, 130.04 1.74 M2.11 148.91 C33.99 112.24, 65.87 75.56, 130.04 1.74 M2.5 154.55 C41.41 109.8, 80.31 65.05, 135.03 2.1 M2.5 154.55 C50.12 99.78, 97.73 45.01, 135.03 2.1 M2.24 160.95 C42.88 114.2, 83.52 67.45, 140.67 1.71 M2.24 160.95 C31.13 127.72, 60.01 94.5, 140.67 1.71 M0.67 168.86 C37.19 126.85, 73.71 84.84, 145.66 2.07 M0.67 168.86 C38.02 125.89, 75.37 82.93, 145.66 2.07 M1.06 174.5 C54.13 113.46, 107.19 52.42, 150.65 2.43 M1.06 174.5 C51.86 116.06, 102.66 57.62, 150.65 2.43 M3.43 177.88 C37.06 139.19, 70.7 100.49, 156.29 2.03 M3.43 177.88 C61.04 111.6, 118.66 45.32, 156.29 2.03 M3.82 183.52 C56.02 123.47, 108.23 63.42, 161.28 2.39 M3.82 183.52 C66.19 111.77, 128.57 40.02, 161.28 2.39 M4.87 188.41 C65.37 118.82, 125.86 49.23, 166.92 2 M4.87 188.41 C44.4 142.94, 83.92 97.48, 166.92 2 M7.89 191.04 C51.21 141.21, 94.52 91.38, 171.91 2.36 M7.89 191.04 C41.11 152.82, 74.33 114.61, 171.91 2.36 M10.25 194.42 C59.05 138.28, 107.84 82.15, 177.55 1.96 M10.25 194.42 C61.38 135.61, 112.5 76.8, 177.55 1.96 M13.93 196.28 C72.7 128.68, 131.47 61.07, 183.19 1.57 M13.93 196.28 C73.76 127.46, 133.59 58.63, 183.19 1.57 M17.6 198.15 C61.91 147.19, 106.21 96.22, 188.18 1.93 M17.6 198.15 C56.7 153.17, 95.81 108.19, 188.18 1.93 M20.62 200.78 C60.22 155.23, 99.82 109.67, 192.51 3.04 M20.62 200.78 C74.58 138.7, 128.55 76.63, 192.51 3.04 M26.27 200.38 C89.08 128.12, 151.89 55.87, 197.5 3.4 M26.27 200.38 C60.94 160.5, 95.61 120.61, 197.5 3.4 M31.25 200.74 C85.45 138.39, 139.65 76.05, 201.83 4.52 M31.25 200.74 C85.7 138.11, 140.14 75.48, 201.83 4.52 M34.93 202.61 C70.1 162.15, 105.28 121.69, 204.85 7.14 M34.93 202.61 C74.57 157.01, 114.21 111.41, 204.85 7.14 M40.57 202.22 C85.44 150.6, 130.31 98.99, 207.87 9.77 M40.57 202.22 C86.54 149.33, 132.52 96.45, 207.87 9.77 M45.56 202.58 C107.96 130.79, 170.36 59.01, 210.23 13.15 M45.56 202.58 C86.71 155.24, 127.86 107.9, 210.23 13.15 M50.54 202.94 C98.2 148.12, 145.86 93.29, 211.93 17.28 M50.54 202.94 C91.97 155.28, 133.4 107.62, 211.93 17.28 M56.19 202.54 C117.23 132.33, 178.27 62.11, 214.3 20.66 M56.19 202.54 C87.94 166.01, 119.7 129.49, 214.3 20.66 M61.17 202.9 C102.38 155.51, 143.58 108.11, 215.35 25.55 M61.17 202.9 C93.72 165.47, 126.26 128.03, 215.35 25.55 M66.82 202.51 C116.48 145.39, 166.13 88.26, 214.43 32.7 M66.82 202.51 C119.22 142.23, 171.62 81.94, 214.43 32.7 M71.8 202.87 C101.41 168.81, 131.01 134.76, 214.83 38.34 M71.8 202.87 C108.21 161, 144.61 119.12, 214.83 38.34 M77.45 202.48 C110.73 164.18, 144.02 125.89, 214.56 44.74 M77.45 202.48 C105.09 170.68, 132.73 138.88, 214.56 44.74 M82.43 202.84 C134.15 143.35, 185.86 83.86, 214.3 51.14 M82.43 202.84 C131.73 146.13, 181.02 89.43, 214.3 51.14 M88.08 202.44 C128.92 155.45, 169.77 108.46, 214.7 56.78 M88.08 202.44 C132.4 151.45, 176.72 100.46, 214.7 56.78 M93.06 202.8 C124.01 167.2, 154.96 131.59, 214.44 63.18 M93.06 202.8 C132.64 157.27, 172.22 111.74, 214.44 63.18 M98.71 202.41 C133.32 162.59, 167.93 122.78, 214.83 68.82 M98.71 202.41 C125.44 171.65, 152.18 140.89, 214.83 68.82 M103.69 202.77 C135.02 166.73, 166.35 130.69, 214.57 75.22 M103.69 202.77 C141.27 159.54, 178.84 116.32, 214.57 75.22 M109.34 202.37 C140.4 166.64, 171.47 130.9, 214.31 81.62 M109.34 202.37 C150.51 155, 191.69 107.64, 214.31 81.62 M114.32 202.73 C146.09 166.19, 177.86 129.65, 214.7 87.26 M114.32 202.73 C135.4 178.49, 156.47 154.25, 214.7 87.26 M119.97 202.34 C152.82 164.54, 185.68 126.74, 214.44 93.66 M119.97 202.34 C139.48 179.89, 159 157.44, 214.44 93.66 M124.95 202.7 C147.71 176.53, 170.46 150.35, 214.83 99.3 M124.95 202.7 C143.59 181.26, 162.23 159.82, 214.83 99.3 M130.6 202.3 C154.93 174.31, 179.27 146.31, 214.57 105.7 M130.6 202.3 C161.15 167.15, 191.71 132, 214.57 105.7 M135.58 202.66 C162.63 171.55, 189.68 140.44, 214.31 112.1 M135.58 202.66 C164.68 169.2, 193.77 135.73, 214.31 112.1 M141.23 202.27 C160.54 180.05, 179.86 157.83, 214.71 117.74 M141.23 202.27 C168.8 170.55, 196.37 138.83, 214.71 117.74 M146.22 202.63 C166.24 179.59, 186.26 156.56, 214.45 124.14 M146.22 202.63 C160.21 186.53, 174.21 170.42, 214.45 124.14 M151.86 202.23 C165.25 186.83, 178.64 171.43, 214.84 129.78 M151.86 202.23 C168.99 182.52, 186.13 162.81, 214.84 129.78 M156.85 202.59 C177.82 178.46, 198.8 154.33, 214.58 136.18 M156.85 202.59 C179.55 176.47, 202.26 150.35, 214.58 136.18 M162.49 202.2 C182.66 178.99, 202.84 155.78, 214.32 142.58 M162.49 202.2 C178.35 183.95, 194.21 165.71, 214.32 142.58 M167.48 202.56 C180.15 187.98, 192.82 173.4, 214.71 148.22 M167.48 202.56 C180.86 187.17, 194.24 171.77, 214.71 148.22 M172.46 202.92 C182.86 190.95, 193.27 178.99, 214.45 154.62 M172.46 202.92 C182.92 190.89, 193.38 178.85, 214.45 154.62 M178.11 202.53 C188.32 190.77, 198.54 179.02, 214.84 160.26 M178.11 202.53 C192.61 185.84, 207.11 169.16, 214.84 160.26 M183.75 202.13 C194.47 189.79, 205.19 177.46, 214.58 166.66 M183.75 202.13 C192.8 191.71, 201.86 181.3, 214.58 166.66 M190.7 200.23 C199.03 190.65, 207.35 181.07, 216.95 170.04 M190.7 200.23 C199.04 190.64, 207.38 181.05, 216.95 170.04 M197 199.08 C201.83 193.53, 206.65 187.98, 216.03 177.19 M197 199.08 C203.7 191.37, 210.41 183.66, 216.03 177.19" stroke="#b2f2bb" stroke-width="0.5" fill="none"></path><path d="M32 0 M32 0 C71.73 0, 111.47 0, 182 0 M32 0 C63.85 0, 95.71 0, 182 0 M182 0 C203.33 0, 214 10.67, 214 32 M182 0 C203.33 0, 214 10.67, 214 32 M214 32 C214 78.74, 214 125.47, 214 168 M214 32 C214 59.31, 214 86.62, 214 168 M214 168 C214 189.33, 203.33 200, 182 200 M214 168 C214 189.33, 203.33 200, 182 200 M182 200 C151.42 200, 120.84 200, 32 200 M182 200 C131.99 200, 81.98 200, 32 200 M32 200 C10.67 200, 0 189.33, 0 168 M32 200 C10.67 200, 0 189.33, 0 168 M0 168 C0 131.64, 0 95.27, 0 32 M0 168 C0 138.52, 0 109.05, 0 32 M0 32 C0 10.67, 10.67 0, 32 0 M0 32 C0 10.67, 10.67 0, 32 0" stroke="#000000" stroke-width="1" fill="none"></path></g><g stroke-linecap="round"><g stroke-opacity="0.8" fill-opacity="0.8" transform="translate(79.62574242182609 321.5654648056625) rotate(359.0949286921234 264.0360082621342 2.9387622663907678)"><path d="M0 0 C118.63 1.32, 237.27 2.64, 528.07 5.88 M0 0 C106.45 1.18, 212.89 2.37, 528.07 5.88" stroke="#e03131" stroke-width="2" fill="none"></path></g><g stroke-opacity="0.8" fill-opacity="0.8" transform="translate(79.62574242182609 321.5654648056625) rotate(359.0949286921234 264.0360082621342 2.9387622663907678)"><path d="M28.3 -9.95 C21.94 -7.71, 15.59 -5.48, 0 0 M28.3 -9.95 C22.6 -7.94, 16.89 -5.94, 0 0" stroke="#e03131" stroke-width="2" fill="none"></path></g><g stroke-opacity="0.8" fill-opacity="0.8" transform="translate(79.62574242182609 321.5654648056625) rotate(359.0949286921234 264.0360082621342 2.9387622663907678)"><path d="M28.07 10.57 C21.77 8.2, 15.46 5.82, 0 0 M28.07 10.57 C22.42 8.44, 16.76 6.31, 0 0" stroke="#e03131" stroke-width="2" fill="none"></path></g><g stroke-opacity="0.8" fill-opacity="0.8" transform="translate(79.62574242182609 321.5654648056625) rotate(359.0949286921234 264.0360082621342 2.9387622663907678)"><path d="M499.77 15.82 C506.13 13.59, 512.49 11.35, 528.07 5.88 M499.77 15.82 C505.47 13.82, 511.18 11.81, 528.07 5.88" stroke="#e03131" stroke-width="2" fill="none"></path></g><g stroke-opacity="0.8" fill-opacity="0.8" transform="translate(79.62574242182609 321.5654648056625) rotate(359.0949286921234 264.0360082621342 2.9387622663907678)"><path d="M500 -4.7 C506.3 -2.32, 512.61 0.05, 528.07 5.88 M500 -4.7 C505.66 -2.56, 511.32 -0.43, 528.07 5.88" stroke="#e03131" stroke-width="2" fill="none"></path></g></g><mask></mask><g stroke-linecap="round"><g stroke-opacity="0.8" fill-opacity="0.8" transform="translate(63.74040509462776 318.975461249971) rotate(89.09492869212335 272.3729476384225 2.1146641757850375)"><path d="M0 0 C176.75 1.37, 353.51 2.74, 544.75 4.23 M0 0 C165.22 1.28, 330.44 2.57, 544.75 4.23" stroke="#e03131" stroke-width="2" fill="none"></path></g><g stroke-opacity="0.8" fill-opacity="0.8" transform="translate(63.74040509462776 318.975461249971) rotate(89.09492869212335 272.3729476384225 2.1146641757850375)"><path d="M28.27 -10.04 C19.1 -6.78, 9.92 -3.53, 0 0 M28.27 -10.04 C19.7 -7, 11.12 -3.95, 0 0" stroke="#e03131" stroke-width="2" fill="none"></path></g><g stroke-opacity="0.8" fill-opacity="0.8" transform="translate(63.74040509462776 318.975461249971) rotate(89.09492869212335 272.3729476384225 2.1146641757850375)"><path d="M28.11 10.48 C18.99 7.08, 9.87 3.68, 0 0 M28.11 10.48 C19.58 7.3, 11.06 4.12, 0 0" stroke="#e03131" stroke-width="2" fill="none"></path></g><g stroke-opacity="0.8" fill-opacity="0.8" transform="translate(63.74040509462776 318.975461249971) rotate(89.09492869212335 272.3729476384225 2.1146641757850375)"><path d="M516.48 14.27 C525.65 11.01, 534.82 7.75, 544.75 4.23 M516.48 14.27 C525.05 11.23, 533.62 8.18, 544.75 4.23" stroke="#e03131" stroke-width="2" fill="none"></path></g><g stroke-opacity="0.8" fill-opacity="0.8" transform="translate(63.74040509462776 318.975461249971) rotate(89.09492869212335 272.3729476384225 2.1146641757850375)"><path d="M516.64 -6.25 C525.76 -2.85, 534.88 0.55, 544.75 4.23 M516.64 -6.25 C525.16 -3.07, 533.69 0.11, 544.75 4.23" stroke="#e03131" stroke-width="2" fill="none"></path></g></g><mask></mask><g transform="translate(618.1949524827702 302.0692968569201) rotate(359.0949286921234 20 12.5)"><text x="0" y="0" font-family="Virgil, Segoe UI Emoji" font-size="20px" fill="#000" text-anchor="start" style="white-space: pre;" direction="ltr" dominant-baseline="text-before-edge">急迫</text></g><g transform="translate(10.193704865713926 310.9113386834142) rotate(359.0949286921234 30 12.5)"><text x="0" y="0" font-family="Virgil, Segoe UI Emoji" font-size="20px" fill="#000" text-anchor="start" style="white-space: pre;" direction="ltr" dominant-baseline="text-before-edge">非急迫</text></g><g transform="translate(322.0341984475539 10.314356825692812) rotate(359.0949286921234 20 12.5)"><text x="0" y="0" font-family="Virgil, Segoe UI Emoji" font-size="20px" fill="#000" text-anchor="start" style="white-space: pre;" direction="ltr" dominant-baseline="text-before-edge">重要</text></g><g transform="translate(321.0341984475539 603.3143568256919) rotate(359.0949286921234 20 12.5)"><text x="0" y="0" font-family="Virgil, Segoe UI Emoji" font-size="20px" fill="#000" text-anchor="start" style="white-space: pre;" direction="ltr" dominant-baseline="text-before-edge">次要</text></g><g transform="translate(430.60970625361006 91.46992126027544) rotate(0 56 10)"><text x="0" y="0" font-family="Virgil, Segoe UI Emoji" font-size="16px" fill="#000000" text-anchor="start" style="white-space: pre;" direction="ltr" dominant-baseline="text-before-edge">急事：节制时间</text></g><g transform="translate(126.60970625361006 91.46992126027544) rotate(0 56 10)"><text x="0" y="0" font-family="Virgil, Segoe UI Emoji" font-size="16px" fill="#000000" text-anchor="start" style="white-space: pre;" direction="ltr" dominant-baseline="text-before-edge">要事：优先处理</text></g><g transform="translate(427.60970625361006 380.46992126027544) rotate(0 56 10)"><text x="0" y="0" font-family="Virgil, Segoe UI Emoji" font-size="16px" fill="#000000" text-anchor="start" style="white-space: pre;" direction="ltr" dominant-baseline="text-before-edge">琐事：交付他人</text></g><g transform="translate(126.60970625361006 380.46992126027544) rotate(0 60 10)"><text x="0" y="0" font-family="Virgil, Segoe UI Emoji" font-size="16px" fill="#000000" text-anchor="start" style="white-space: pre;" direction="ltr" dominant-baseline="text-before-edge">闲事：少做/不做</text></g><g stroke-linecap="round" transform="translate(386.28602362709285 98.06741645558941) rotate(0 16.55126065120635 5.403117108206061)"><path d="M-0.31 6.36 C-0.31 6.36, -0.31 6.36, -0.31 6.36 M-0.31 6.36 C-0.31 6.36, -0.31 6.36, -0.31 6.36 M3.51 7.61 C5.54 6.23, 5.93 4.46, 7.95 2.95 M3.9 7.55 C4.93 6.52, 5.75 5.56, 7.84 3.09 M9.35 8.74 C10.06 6.59, 14.05 2.61, 15.05 0.05 M8.42 8.78 C9.54 7.06, 11.2 5.29, 15.31 0.57 M12.39 10.12 C15.26 6.69, 16.83 4.69, 19.92 2.7 M12.37 9.28 C14.43 7.64, 15.71 5.74, 19.15 2.46 M17.01 11.38 C19.05 7.25, 21.82 6.08, 22.72 3.52 M16.84 10.88 C18.68 8.52, 20.57 6.96, 23.34 3.05 M24.24 8.59 C25.14 7.86, 26.26 6.17, 27.36 4.8 M23.88 9.07 C24.97 7.94, 25.8 6.59, 27.32 4.97 M31.58 6.25 C31.58 6.25, 31.58 6.25, 31.58 6.25 M31.58 6.25 C31.58 6.25, 31.58 6.25, 31.58 6.25 M0.05 6.04 C0.05 6.04, 0.05 6.04, 0.05 6.04 M0.05 6.04 C0.05 6.04, 0.05 6.04, 0.05 6.04 M8.47 7.69 C7.65 6.98, 6 6.4, 4.53 4.48 M8.83 8.5 C7.72 7.4, 6.54 6.27, 3.91 4.1 M16.23 11.45 C13.7 8.95, 12.96 6.37, 8.27 1.74 M17.31 10.87 C15.83 8.58, 13.42 7.02, 8.03 2.67 M20.71 8.17 C18.76 6.12, 16.12 4.46, 12.52 1.06 M21.04 9.33 C19.59 7.33, 18.05 6.02, 13.26 1.55 M27.07 7.98 C22.44 5.99, 19.61 2.46, 17.74 0.17 M26.68 7.81 C24.11 5.85, 22.98 3.8, 17.55 0.11 M31.64 6.61 C29.83 5.93, 29.1 4.87, 27.57 3.6 M31.21 6.53 C30.2 5.82, 29.62 5.36, 27.66 3.49" stroke="#ffc9c9" stroke-width="0.5" fill="none"></path><path d="M17.14 -0.52 C22.42 3.3, 27.12 2.73, 33.41 4.43 M16.76 0.81 C22.59 1.61, 29.67 4.35, 32.61 5.74 M34.28 6.98 C26.35 8.15, 22.4 9.01, 16.57 12.16 M33.17 6.54 C27.24 7.21, 20.74 9.89, 17.14 10.29 M16.41 12.56 C13.14 10.34, 11.16 8.62, 0.3 5.47 M17.48 11.3 C11.68 8.77, 7.19 8.24, -0.6 6.26 M-1.17 6.17 C4.62 2.58, 10.39 2.95, 16.41 0.56 M0.9 6.27 C4.09 4.84, 7.53 2.64, 16.44 -0.05" stroke="#e03131" stroke-width="1" fill="none"></path></g><g stroke-linecap="round" transform="translate(386.28602362709285 95.46035784036394) rotate(0 16.55126065120635 5.403117108206061)"><path d="M-0.31 6.36 C-0.31 6.36, -0.31 6.36, -0.31 6.36 M-0.31 6.36 C-0.31 6.36, -0.31 6.36, -0.31 6.36 M4.33 7.56 C4.46 6.13, 5.79 5.47, 7.44 2.93 M4.09 7.49 C5.32 6.07, 6.39 4.76, 8.12 2.77 M7.46 9.5 C10.72 6.26, 11.55 3.97, 14.6 -0.54 M7.95 8.88 C10.81 5.69, 13.54 2.56, 15.95 0.02 M12.8 9.42 C13.35 8.58, 16.16 7.03, 18.8 2.97 M12.82 9.59 C14.64 7.18, 16.96 5.08, 19.62 1.94 M16.56 10.04 C18.48 9.82, 19.37 7.34, 23.37 2.47 M16.79 10.7 C19.46 8.25, 21.99 4.62, 23.8 3.63 M24.04 9.14 C24.75 7.92, 25.55 6.88, 27.19 5.05 M24.02 9.02 C24.84 7.68, 25.9 6.6, 27.12 5.23 M31.58 6.25 C31.58 6.25, 31.58 6.25, 31.58 6.25 M31.58 6.25 C31.58 6.25, 31.58 6.25, 31.58 6.25 M0.05 6.04 C0.05 6.04, 0.05 6.04, 0.05 6.04 M0.05 6.04 C0.05 6.04, 0.05 6.04, 0.05 6.04 M8.79 7.96 C6.54 6.79, 5.48 5.25, 3.87 4.11 M8.82 8.35 C7.15 6.83, 5.21 5.28, 4.15 4.2 M16.27 11.14 C14.7 7.84, 10.35 3.56, 7.2 3.52 M17.77 10.26 C15.01 8.45, 12.64 6.72, 8.2 2.69 M21.09 8.07 C17.6 5.58, 14.42 2.62, 12.17 1.62 M21.31 8.76 C18.5 6.39, 15.56 3.57, 13.58 1.52 M25.77 8.83 C22.94 5.36, 20.2 2.37, 16.42 -1.17 M26.07 7.57 C23.76 4.53, 20.23 2.49, 17.08 -0.44 M30.79 6.78 C29.92 5.61, 29.15 4.98, 27.16 3.84 M31.09 6.56 C30.12 5.72, 28.9 4.53, 27.7 3.62" stroke="#ffc9c9" stroke-width="0.5" fill="none"></path><path d="M17.53 1.45 C22.04 0.85, 26.73 1.99, 34.27 7.28 M16.62 -0.5 C23.55 2.04, 28.07 3.91, 33.77 5.8 M32.44 6.27 C29.1 7.05, 21.69 10.74, 18.52 10.98 M33.52 5.32 C28.35 7.71, 23.35 8.54, 16.23 11.42 M16.73 11.24 C12.21 8.97, 5.12 7, -0.01 6.17 M16.77 10.11 C11.23 9.38, 4.14 7.7, 0.03 6.49 M-0.49 4.55 C6.84 4.36, 12.81 1.83, 15.83 1.45 M0.14 6.09 C2.96 4.03, 6.25 3.47, 17.68 0.56" stroke="#e03131" stroke-width="1" fill="none"></path></g><g stroke-linecap="round" transform="translate(386.28602362709285 91.74874534853006) rotate(0 16.55126065120635 5.403117108206061)"><path d="M-0.31 6.36 C-0.31 6.36, -0.31 6.36, -0.31 6.36 M-0.31 6.36 C-0.31 6.36, -0.31 6.36, -0.31 6.36 M3.55 7.14 C5.26 6.01, 6.02 4.52, 8.04 2.7 M4.07 7.5 C5.17 6.14, 6.73 4.36, 7.85 3.21 M8.89 8.46 C10.16 5.69, 11.98 2.49, 16.43 0.42 M8.09 8.86 C10.57 6.04, 13.64 2.71, 15.08 0.12 M11.94 10.2 C15.6 7.69, 16.71 5.38, 19.54 1.52 M12.42 9.62 C13.98 8.39, 15.86 6.25, 18.97 2.15 M16.87 11.7 C18.53 8.43, 21.52 4.68, 24.53 2.93 M16.84 11.25 C18.86 8.25, 21.37 6.48, 23.21 3.54 M24.03 8.75 C24.85 7.67, 25.45 7.03, 27.16 4.96 M23.9 8.76 C25.22 7.36, 26.22 6.24, 27.14 5.25 M31.58 6.25 C31.58 6.25, 31.58 6.25, 31.58 6.25 M31.58 6.25 C31.58 6.25, 31.58 6.25, 31.58 6.25 M0.05 6.04 C0.05 6.04, 0.05 6.04, 0.05 6.04 M0.05 6.04 C0.05 6.04, 0.05 6.04, 0.05 6.04 M8.32 8.4 C8.13 7.59, 6.54 6.42, 4.5 4.57 M8.77 8.19 C6.71 6.56, 5.24 5.17, 4.45 4.05 M18.15 10.83 C13.96 6.68, 9.47 5.48, 7.67 2.49 M17.23 10.33 C13.77 7.66, 10.67 4.84, 8.85 2.19 M20.77 8.43 C18.83 6.47, 16.46 5.27, 13.92 0.65 M21.47 8.94 C18.3 5.9, 15.32 3.01, 13.54 1.89 M26.26 8.19 C23.94 5.61, 19.73 1.76, 17.93 0.44 M26.96 7.27 C23.84 5.51, 20.56 2.51, 17.27 0.3 M31.03 6.57 C30.31 5.96, 28.82 5.26, 27.7 3.27 M31.38 6.86 C30.57 5.98, 29.72 5.33, 27.29 3.43" stroke="#ffc9c9" stroke-width="0.5" fill="none"></path><path d="M17.32 -0.95 C21.66 -0.09, 26.87 4.37, 34.13 5.53 M17.77 0.03 C22.82 2.2, 30.33 4.62, 33.46 6.6 M34.58 5.31 C26.88 9.1, 23.05 9.65, 17.13 10.94 M33.3 6.13 C27.41 7.1, 20.65 9.98, 17.49 10.53 M18.29 10.53 C10.53 8.4, 3.43 7.18, 1.06 6.96 M17.37 11.02 C10.36 9.22, 4.94 7.74, 0.82 5.43 M0.12 6.74 C4.69 4.84, 9.37 3.87, 15.23 1.8 M-0.42 5.3 C5.04 3.95, 11.89 2.58, 17.42 -0.65" stroke="#e03131" stroke-width="1" fill="none"></path></g><g stroke-linecap="round" transform="translate(386.28602362709285 88.06619184854935) rotate(0 16.55126065120635 5.403117108206061)"><path d="M-0.31 6.36 C-0.31 6.36, -0.31 6.36, -0.31 6.36 M-0.31 6.36 C-0.31 6.36, -0.31 6.36, -0.31 6.36 M4.01 7.48 C4.77 6.06, 6.61 4.4, 8.11 3.07 M3.9 7.62 C5.38 5.91, 6.31 4.98, 8 2.7 M7.83 8.35 C10.1 4.59, 14.71 2.37, 15.96 -0.51 M8.09 8.87 C11.32 5.36, 13 2.52, 15.8 0.35 M13.36 10.25 C14.08 8.43, 16.6 4.93, 18.4 2.42 M12.59 10 C14.92 7.4, 16.08 5.52, 19.53 1.93 M16.16 11.07 C18.28 8.27, 20.9 7.06, 23.7 2.82 M16.78 10.6 C19.08 9.04, 20.3 6.86, 23.25 3.34 M24.08 8.57 C25.04 7.53, 26.14 6.13, 27.57 5.23 M24.04 8.75 C24.98 7.73, 26.13 6.45, 27.07 5.13 M31.58 6.25 C31.58 6.25, 31.58 6.25, 31.58 6.25 M31.58 6.25 C31.58 6.25, 31.58 6.25, 31.58 6.25 M0.05 6.04 C0.05 6.04, 0.05 6.04, 0.05 6.04 M0.05 6.04 C0.05 6.04, 0.05 6.04, 0.05 6.04 M9.06 8.41 C7.3 7.08, 6.81 6.56, 4.65 4.56 M8.43 8.03 C7.19 6.84, 6.02 5.41, 4.42 4.06 M17.32 9.62 C13.01 8.64, 10.28 4.83, 9.04 3.42 M17.09 10.54 C14.92 8.49, 13.22 5.95, 7.98 2.4 M20.82 8.28 C18.58 7.12, 18.38 4.46, 14.27 1.18 M21.56 8.77 C19.44 6.64, 16.96 4.87, 13.31 1.29 M26.79 8.05 C21.94 3.67, 19.92 2.19, 17.46 -0.78 M26.6 7.98 C23.62 5.23, 21.35 3.84, 17.24 -0.72 M31.35 6.88 C29.75 6.06, 29.09 4.45, 27.19 3.04 M31.43 6.77 C30.53 6.12, 29.19 5.13, 27.55 3.22" stroke="#ffc9c9" stroke-width="0.5" fill="none"></path><path d="M17.31 -1.57 C24.37 3.67, 30.42 4.23, 34.71 5.25 M16.51 -0.26 C21.62 1.25, 25.2 3.5, 33.61 5.66 M32.68 7.35 C29.58 7.63, 23.1 9.1, 18.07 11.64 M33.25 5.48 C28.82 7.69, 26.56 7.85, 17.83 10.68 M17.3 10.28 C11.43 9.38, 6.98 8.62, 0.99 5.54 M16.4 11.07 C13.25 10.28, 10.29 8.15, 0.08 5.76 M-0.59 6.56 C2.56 6.06, 5.7 5.09, 17.54 0.27 M-0.56 5.95 C5.97 4.83, 10.98 1.76, 16.11 0.19" stroke="#e03131" stroke-width="1" fill="none"></path></g><g stroke-linecap="round" transform="translate(86.28602362709285 97.06741645558941) rotate(0 16.551260651206377 5.403117108206061)"><path d="M-0.31 6.36 C-0.31 6.36, -0.31 6.36, -0.31 6.36 M-0.31 6.36 C-0.31 6.36, -0.31 6.36, -0.31 6.36 M3.94 7.75 C5.15 5.82, 7.58 4.48, 8.21 3.36 M3.76 7.69 C5.11 6.55, 5.9 5.5, 8.24 2.77 M7.6 8.36 C11.57 5.22, 13.3 3.1, 16.11 -0.55 M8.13 8.33 C9.75 6.14, 12.33 3.9, 15.8 0.56 M13.19 10.15 C15.53 6.33, 18.73 2.74, 19.48 1.74 M12.56 9.86 C14.87 7.93, 17.06 5.19, 19.2 2.17 M17.05 10.3 C18.89 7.89, 21.61 4.38, 23.93 3.6 M16.69 11.03 C19.4 8.37, 21.04 5.7, 23.11 3.05 M24.3 8.58 C25.36 8.31, 26.05 7.18, 26.77 5.49 M24.12 8.67 C24.8 8.12, 25.43 7.14, 27.29 5.07 M31.58 6.25 C31.58 6.25, 31.58 6.25, 31.58 6.25 M31.58 6.25 C31.58 6.25, 31.58 6.25, 31.58 6.25 M0.05 6.04 C0.05 6.04, 0.05 6.04, 0.05 6.04 M0.05 6.04 C0.05 6.04, 0.05 6.04, 0.05 6.04 M8.28 8.24 C7.25 6.81, 5.87 5.48, 4.73 3.74 M8.75 8.49 C7.1 6.73, 5.15 5.04, 4.2 4.32 M17.14 11.42 C13.8 7.24, 11.13 4.09, 8.4 3.72 M17.78 10.2 C13.65 7.1, 10.28 4.89, 8.14 2.75 M21.67 9.79 C20.24 8.33, 18.5 5.93, 12.96 1.8 M21.81 9.15 C18.26 5.72, 15.52 3.77, 13.01 1.9 M26.2 7.77 C24.13 6.12, 19.59 2.75, 16.94 -0.57 M26.6 7.42 C24.35 5.9, 21.04 3.78, 17.84 0.17 M31.19 6.41 C30.12 5.63, 29.87 5.45, 27.04 3.33 M31.37 6.73 C30.18 5.88, 29.09 4.81, 27.3 3.57" stroke="#ffc9c9" stroke-width="0.5" fill="none"></path><path d="M15.67 -0.64 C23.36 2.77, 28.24 4.85, 34.11 7.25 M17.77 0.38 C21.73 2.66, 27.39 4.43, 32.81 5.85 M33.91 6.08 C28.19 5.91, 24.09 7.18, 16.95 9.22 M32.57 5.24 C27.47 6.99, 20.68 9.81, 16.55 11.15 M17.39 9.14 C12.57 9.64, 7.75 9.82, -1.18 5.73 M16.71 10.75 C10.67 8.53, 4.15 7.87, 0.41 6.82 M-0.76 7.39 C6.61 4.37, 11.94 0.03, 17.95 -0.56 M0.42 5.18 C5.47 4.86, 12.89 2.6, 16.18 0.24" stroke="#1971c2" stroke-width="1" fill="none"></path></g><g stroke-linecap="round" transform="translate(86.28602362709285 94.46035784036394) rotate(0 16.551260651206377 5.403117108206061)"><path d="M-0.31 6.36 C-0.31 6.36, -0.31 6.36, -0.31 6.36 M-0.31 6.36 C-0.31 6.36, -0.31 6.36, -0.31 6.36 M4.3 7.06 C5.07 6.89, 6.43 5.52, 8.37 2.56 M4.24 7.65 C5.55 5.96, 6.95 4.61, 7.78 2.97 M8.12 9.54 C9.45 6.92, 11.79 4.83, 14.74 -0.14 M8.1 8.14 C10.68 5.86, 13.22 2.83, 15.84 0.83 M13.13 9.97 C14.61 7.88, 16.33 4.62, 18.83 2.07 M12.84 9.92 C14.63 8.46, 15.62 6.17, 19.26 2.46 M16.5 10.37 C19.12 8.05, 20.65 5.85, 23.9 3.52 M17.23 11.09 C19.13 8.21, 21.01 5.55, 23.36 3.08 M23.64 9.41 C25.08 8.38, 25.67 6.74, 27.6 4.72 M23.73 9.03 C24.94 7.84, 25.72 6.76, 27.18 5.33 M31.58 6.25 C31.58 6.25, 31.58 6.25, 31.58 6.25 M31.58 6.25 C31.58 6.25, 31.58 6.25, 31.58 6.25 M0.05 6.04 C0.05 6.04, 0.05 6.04, 0.05 6.04 M0.05 6.04 C0.05 6.04, 0.05 6.04, 0.05 6.04 M8.68 8.33 C7.36 7.43, 6.2 6.76, 3.59 4.87 M8.93 8.41 C7.45 7.15, 6.06 6.14, 4.17 4.56 M18.29 10.26 C15.3 9.31, 13.19 7.22, 9.41 3.68 M17.07 10.31 C13.97 7.9, 11.8 5.15, 8.44 2.04 M22.5 9.24 C19.58 6.71, 15.77 3.59, 13.43 2.32 M21.86 8.55 C19.11 7.18, 17.84 5.2, 13.52 1.68 M26.42 8.38 C24.26 4.13, 20.43 2.18, 16.89 -0.32 M26.07 8.3 C23.51 4.86, 20.47 2.8, 17.64 -0.67 M31 6.34 C29.48 5.68, 28.62 3.84, 27.43 3.27 M31.32 6.63 C30.09 5.44, 28.6 4.23, 27.67 3.4" stroke="#ffc9c9" stroke-width="0.5" fill="none"></path><path d="M16.36 0.8 C22.67 2.05, 27.55 4.75, 34.35 6.59 M17.38 -0.64 C22.27 1.2, 26.63 2.99, 32.95 5.48 M33.18 4.98 C28.07 5.92, 24.47 8.25, 15.42 12.18 M32.34 6.52 C27.67 7.16, 24.06 8.19, 17.34 10.65 M15.33 11.13 C13.09 10, 10.6 7.38, -0.27 7.23 M16.95 10.73 C12.45 9.28, 9.46 8.84, 0.82 6.84 M1.39 5.88 C5.33 2.98, 7.88 3.83, 16.44 1.14 M-0.82 5.25 C4.44 5.18, 7.84 2.64, 17.24 0.21" stroke="#1971c2" stroke-width="1" fill="none"></path></g><g stroke-linecap="round" transform="translate(86.28602362709285 90.74874534853006) rotate(0 16.551260651206377 5.403117108206061)"><path d="M-0.31 6.36 C-0.31 6.36, -0.31 6.36, -0.31 6.36 M-0.31 6.36 C-0.31 6.36, -0.31 6.36, -0.31 6.36 M3.61 7.52 C5.37 6.95, 5.94 5.95, 7.57 3.25 M4.2 7.63 C5.34 6.2, 6.8 4.44, 7.99 2.83 M9.3 7.75 C10.66 6.14, 12.55 3.63, 15.15 0.96 M7.91 8.38 C11.43 5.12, 14.21 2.45, 16.11 0.56 M12.96 9.4 C16.03 5.87, 17.96 3.42, 19.16 1.48 M12.91 10.17 C15.5 6.95, 17.26 4.4, 19.55 2.41 M16.57 10.63 C19.01 7.46, 21.56 6.35, 23.82 3.48 M17.29 10.79 C18.51 8.62, 19.94 6.74, 23.39 2.87 M24.47 9.28 C25.06 8.25, 25.05 7.46, 26.83 5.08 M24.09 8.91 C24.7 7.95, 25.42 7.23, 27.44 5.19 M31.58 6.25 C31.58 6.25, 31.58 6.25, 31.58 6.25 M31.58 6.25 C31.58 6.25, 31.58 6.25, 31.58 6.25 M0.05 6.04 C0.05 6.04, 0.05 6.04, 0.05 6.04 M0.05 6.04 C0.05 6.04, 0.05 6.04, 0.05 6.04 M8.77 8.11 C7.29 6.68, 5.98 4.81, 4.71 4.17 M8.85 8.26 C7.25 6.91, 5.91 5.85, 4.41 4.07 M17.13 10.28 C15.98 8.5, 13.66 8.35, 9.37 3.02 M17.18 10.13 C14.33 8.36, 11.25 5.46, 7.73 2.9 M21.95 9.76 C19.05 6.43, 15.58 4.16, 13.94 0.9 M21.26 8.38 C19.14 7.06, 16.49 5.01, 13.3 1.73 M27.03 8.6 C22.4 5.13, 20.04 2.11, 17.14 0.45 M26.95 8.07 C22.79 5.18, 20.08 2.09, 16.79 0.25 M30.93 6.29 C30.06 5.55, 28 4.14, 27.37 3.64 M31.22 6.79 C30.19 5.79, 29.17 5.21, 27.5 3.64" stroke="#ffc9c9" stroke-width="0.5" fill="none"></path><path d="M17.8 0.78 C22.77 2.98, 29.35 5.55, 33.69 5.75 M16.36 0.67 C21.62 2.19, 26.62 3.45, 32.58 5.41 M32.08 4.66 C26.04 6.52, 21.44 7.9, 18.38 10.56 M33.63 5.16 C28.18 7.43, 23.07 9.05, 16.85 10.28 M17.33 10.94 C11.7 10.74, 4.64 7.22, 1.23 4.96 M16.92 10.35 C12.07 10.14, 8.15 8.99, 0.84 5.7 M-0.12 6.84 C4.67 2.57, 13.25 0.98, 18.14 -1.7 M-0.75 6.89 C4.02 5.7, 6.26 3.89, 17.21 0.51" stroke="#1971c2" stroke-width="1" fill="none"></path></g><g stroke-linecap="round" transform="translate(86.28602362709285 87.06619184854935) rotate(0 16.551260651206377 5.403117108206061)"><path d="M-0.31 6.36 C-0.31 6.36, -0.31 6.36, -0.31 6.36 M-0.31 6.36 C-0.31 6.36, -0.31 6.36, -0.31 6.36 M4.07 7.99 C5.58 6.45, 6.67 4.52, 8.27 3.01 M4.18 7.52 C4.99 6.77, 5.49 5.55, 7.84 2.79 M7.52 9.04 C9.65 7.14, 10.88 4.26, 16.25 1.25 M8.14 8.83 C9.99 6.71, 12.42 4.87, 15.84 0.76 M12.38 10.55 C14.07 7.27, 16.84 4.3, 18.57 2.66 M13.15 10.2 C14.39 7.55, 16.29 5.81, 19.5 2.25 M16.83 10.71 C18.07 8.91, 21.37 6.51, 23.79 2.81 M16.98 10.59 C18.28 8.54, 19.86 7.04, 23.18 2.98 M24.34 9.24 C25.43 7.01, 26.75 5.69, 27.19 4.73 M23.97 8.95 C25.01 7.58, 26.29 6.38, 27.3 5.38 M31.58 6.25 C31.58 6.25, 31.58 6.25, 31.58 6.25 M31.58 6.25 C31.58 6.25, 31.58 6.25, 31.58 6.25 M0.05 6.04 C0.05 6.04, 0.05 6.04, 0.05 6.04 M0.05 6.04 C0.05 6.04, 0.05 6.04, 0.05 6.04 M8.55 8.47 C7.52 7.92, 6.05 7.01, 4.02 4.39 M8.69 8.22 C7.08 7.07, 5.82 6.04, 3.92 4.07 M17.15 11 C14.36 8.35, 13.32 7.11, 8.7 2.93 M17 10.45 C14.55 7.41, 10.88 4.1, 8.58 2.88 M22.47 9.19 C18.85 6.31, 16.43 5.02, 12.53 1.44 M21.09 8.86 C18.8 6, 15.89 3.74, 13.35 1.74 M27.25 6.72 C23.81 5.16, 20.8 3.12, 17.91 0.77 M26.72 7.57 C23.85 5.69, 20.67 2.01, 17.72 0.31 M30.88 6.88 C30.34 5.27, 29.09 4.67, 27.74 3.17 M31.38 6.56 C29.92 5.37, 28.9 4.46, 27.74 3.52" stroke="#ffc9c9" stroke-width="0.5" fill="none"></path><path d="M17.78 0.12 C21.36 2.27, 25.39 3.18, 32.85 6.11 M17.67 -0.36 C23.74 2.17, 29.44 4.28, 32.51 6.53 M31.76 4.73 C26.28 7.52, 20.32 10.62, 16.76 10.75 M32.26 5.89 C29.39 6.79, 25.77 8.23, 16.47 11.05 M17.14 11.1 C13.25 8.11, 5.83 8.97, -1.04 5.52 M16.54 10.49 C13.13 9.92, 8.75 9.06, -0.3 6.54 M0.84 4.51 C3.21 5.41, 8.17 4.05, 15.3 -1.64 M0.89 6.5 C6.75 3.24, 12.09 2.19, 17.51 -0.65" stroke="#1971c2" stroke-width="1" fill="none"></path></g><g stroke-linecap="round" transform="translate(87.28602362709285 387.0674164555894) rotate(0 16.551260651206377 5.403117108206061)"><path d="M-0.31 6.36 C-0.31 6.36, -0.31 6.36, -0.31 6.36 M-0.31 6.36 C-0.31 6.36, -0.31 6.36, -0.31 6.36 M4.31 7.45 C5.27 6.63, 6.76 5.56, 8.42 3.47 M4.28 7.41 C5.47 5.72, 6.4 4.56, 7.67 3.18 M9.17 8.11 C11.29 5.99, 13.02 1.9, 16.45 1.02 M8.17 8.22 C10.43 5.57, 12.92 4.02, 15.75 0.06 M13.29 10.38 C14.35 7.17, 16.59 4.11, 18.28 2.04 M12.78 9.79 C13.91 8.5, 16.07 6.22, 18.79 2.18 M16.14 11.74 C19.26 8.46, 22.07 5.63, 23.28 2.85 M17.25 10.66 C19.03 7.79, 21.93 6.01, 23.09 3.06 M23.9 9 C24.99 8.11, 25.35 6.98, 27.59 4.79 M24.04 8.67 C24.79 8.04, 26.19 6.77, 27.46 5.31 M31.58 6.25 C31.58 6.25, 31.58 6.25, 31.58 6.25 M31.58 6.25 C31.58 6.25, 31.58 6.25, 31.58 6.25 M0.05 6.04 C0.05 6.04, 0.05 6.04, 0.05 6.04 M0.05 6.04 C0.05 6.04, 0.05 6.04, 0.05 6.04 M8.83 8.57 C7.14 7.87, 6.73 6.7, 3.73 3.94 M8.5 8.14 C7.93 7.4, 7.15 6.67, 3.91 4.6 M16.81 10.27 C14.55 9.55, 12.57 6.65, 8.52 3.56 M17.69 10.32 C15.72 8.97, 12.9 6.83, 7.91 2.55 M22.56 8.53 C18.71 6.98, 16.99 5.84, 13.6 1.09 M21.19 8.53 C18.45 6.19, 15.06 3.47, 13.38 1.58 M25.88 7.94 C23.15 6.27, 20.62 2.01, 16.82 -0.26 M26.1 8.01 C23.93 5.69, 22.92 4.39, 16.85 0.06 M30.9 6.33 C30.61 5.86, 29.88 5.46, 27.78 3.25 M31.08 6.71 C30.18 5.54, 28.78 4.29, 27.57 3.46" stroke="#ffec99" stroke-width="0.5" fill="none"></path><path d="M17.81 -0.09 C21.68 0.73, 27.07 3.51, 34.41 4.49 M16.83 -0.16 C20.73 0.85, 23.82 3.19, 33.86 6.28 M32.57 4.97 C27.76 8.8, 22.17 9.39, 15.36 11.56 M33.44 6.74 C27.91 7.8, 21.92 9.6, 17.57 10.29 M16.23 9.46 C12.3 10.46, 6.56 9.18, 0.32 6.48 M17.47 11.43 C10.65 9.21, 5.5 7.31, -0.14 6.42 M1.68 6.97 C5.83 5.17, 14.25 2.5, 15.36 1.14 M-0.64 5.27 C6.68 4.05, 11.86 1.48, 16.74 0.41" stroke="#1e1e1e" stroke-width="1" fill="none"></path></g><g stroke-linecap="round" transform="translate(87.28602362709285 384.46035784036394) rotate(0 16.551260651206377 5.403117108206061)"><path d="M-0.31 6.36 C-0.31 6.36, -0.31 6.36, -0.31 6.36 M-0.31 6.36 C-0.31 6.36, -0.31 6.36, -0.31 6.36 M4 7.61 C5.21 7.08, 6.17 6.05, 8.49 3.15 M3.96 7.63 C5.2 5.58, 6.98 3.88, 8.2 3.19 M7.88 8.81 C11.47 4.8, 13.09 3.55, 16.31 0.35 M7.98 8.51 C10.47 5.84, 14.04 2.83, 15.34 0.45 M13.36 9.28 C15.25 6.3, 17.3 2.67, 19.13 1.47 M12.78 9.43 C15.37 7.59, 16.98 4.3, 19.27 2.44 M17.94 10.73 C19.5 8.79, 21.5 5.67, 23.15 3.74 M16.86 10.48 C17.97 9.51, 20.17 7.19, 23.37 2.84 M24.06 9.23 C25.02 7.7, 25.73 6.87, 26.9 5.13 M23.73 8.72 C24.88 8.38, 25.39 7.6, 27.42 5.02 M31.58 6.25 C31.58 6.25, 31.58 6.25, 31.58 6.25 M31.58 6.25 C31.58 6.25, 31.58 6.25, 31.58 6.25 M0.05 6.04 C0.05 6.04, 0.05 6.04, 0.05 6.04 M0.05 6.04 C0.05 6.04, 0.05 6.04, 0.05 6.04 M9.01 7.8 C7.48 6.97, 5.52 4.84, 3.78 3.74 M8.58 8.37 C7.54 7.57, 6.57 6.17, 4.45 4.17 M17.14 9.83 C16.36 8.33, 13.44 7.29, 9.24 1.79 M17.19 11 C14.31 7.31, 10.54 4.15, 8.24 2.45 M21.24 8.28 C18.82 6.32, 16.69 4.17, 12.72 2.41 M21.24 8.82 C19.48 6.71, 17.4 5.32, 13.21 1.81 M26.59 7.67 C23.99 5.09, 18.85 0.97, 17.21 -1.16 M26.66 7.18 C23.73 6.05, 21.79 3.18, 17.52 -0.64 M30.92 6.82 C30.15 5.98, 29.44 5.16, 27.35 3.7 M31.3 6.94 C30.13 5.87, 28.91 4.74, 27.55 3.59" stroke="#ffec99" stroke-width="0.5" fill="none"></path><path d="M16.91 -0.32 C21.09 1.9, 27.09 5, 31.6 4.46 M16.84 0.36 C21.27 1.77, 26.87 4.15, 33.38 6.22 M32.07 5.87 C28.48 7.22, 21.6 7.84, 17.75 11.51 M33.84 6.3 C28.09 7.39, 23.17 9.66, 16.49 10.7 M15.66 11.02 C11.87 8.4, 5.94 7.64, 0.48 6.53 M17.63 10.05 C12.16 9.24, 7.01 8.02, 0.42 6.66 M0.97 5.48 C7.06 5.35, 12.34 0.18, 18.14 1.32 M-0.73 6.33 C5.03 3.59, 9.49 2.47, 17.41 -0.44" stroke="#1e1e1e" stroke-width="1" fill="none"></path></g><g stroke-linecap="round" transform="translate(87.28602362709285 380.74874534853006) rotate(0 16.551260651206377 5.403117108206061)"><path d="M-0.31 6.36 C-0.31 6.36, -0.31 6.36, -0.31 6.36 M-0.31 6.36 C-0.31 6.36, -0.31 6.36, -0.31 6.36 M4.16 7.89 C6.12 6.26, 7.57 4.42, 8.17 3.31 M4.18 7.26 C5.18 5.98, 6.54 4.44, 8.2 3.1 M8.58 9.17 C9.74 5.69, 13.67 4.17, 15.63 0.93 M8.28 8.08 C10.48 6.93, 12.35 4.04, 15.73 0.83 M12.26 9.72 C14.9 6.11, 16.88 3.55, 18.56 2.42 M12.42 10.2 C14.58 7.89, 15.29 6.18, 19.54 2.28 M16.93 11.16 C19.35 8.78, 20.59 5.96, 24.05 2.33 M16.68 10.38 C18.89 9.37, 19.75 6.89, 23.15 3.35 M24.29 8.9 C24.76 7.66, 25.92 6.72, 27.24 4.64 M23.78 9.14 C24.93 8.17, 25.65 7.41, 27.13 5.16 M31.58 6.25 C31.58 6.25, 31.58 6.25, 31.58 6.25 M31.58 6.25 C31.58 6.25, 31.58 6.25, 31.58 6.25 M0.05 6.04 C0.05 6.04, 0.05 6.04, 0.05 6.04 M0.05 6.04 C0.05 6.04, 0.05 6.04, 0.05 6.04 M8.24 8.78 C7.31 7.19, 5.09 5.16, 3.59 3.9 M8.81 8.16 C7.27 6.73, 5.08 5.58, 4.02 4.08 M16.7 11.45 C14.01 7.89, 11.7 6.27, 7.48 3.59 M17.87 10.84 C14.95 8.63, 12.64 6.68, 8.13 2.95 M20.99 8.99 C19.6 8.17, 18.15 5.09, 14.04 1.02 M21.53 8.87 C18.47 6.36, 16.06 3.83, 13.43 2.1 M26.32 8.93 C23.97 4.82, 20.02 2.51, 16.31 -0.66 M25.83 7.39 C24.2 5.55, 20.75 3.45, 16.82 -0.3 M31.41 6.57 C30.52 5.99, 29.59 4.78, 27.8 3.43 M31.53 6.7 C30.2 5.49, 28.75 4.46, 27.68 3.4" stroke="#ffec99" stroke-width="0.5" fill="none"></path><path d="M16.68 -1.01 C23.13 2.17, 30.37 2.99, 31.56 5.67 M17.36 -0.29 C23.11 3.07, 29.86 4.82, 33.32 6.58 M32.97 7.31 C28.58 7.45, 23.41 9.05, 17.7 11.06 M33.4 6.02 C26.65 8.19, 21.12 9.38, 16.9 11.27 M17.22 11.74 C10.2 9.95, 4.94 7.65, 0.53 5.72 M16.25 10.8 C11.55 9.15, 6.56 8.45, 0.66 6.31 M-0.52 7.33 C5.63 5.35, 6.65 4.11, 18.32 -0.32 M0.33 6.19 C3.34 4.54, 8.06 3.63, 16.56 0.33" stroke="#1e1e1e" stroke-width="1" fill="none"></path></g><g stroke-linecap="round" transform="translate(87.28602362709285 377.06619184854935) rotate(0 16.551260651206377 5.403117108206061)"><path d="M-0.31 6.36 C-0.31 6.36, -0.31 6.36, -0.31 6.36 M-0.31 6.36 C-0.31 6.36, -0.31 6.36, -0.31 6.36 M4.44 8.03 C5.97 6.35, 7.29 4.51, 8.32 3.32 M3.81 7.25 C5.69 5.41, 7.31 4.19, 8.12 2.98 M8.93 7.78 C10.75 6.34, 14.53 2.41, 16.22 -0.12 M7.85 8.79 C10.82 6.55, 12.04 4.31, 16.12 0.82 M12.7 9.36 C14.45 6.05, 17.24 3.6, 19.51 1.49 M13.18 10.07 C14.72 6.88, 16.88 5.22, 19.37 2.1 M17.36 11.19 C18.55 8.92, 19.32 8.08, 22.64 2.75 M16.58 11.1 C19.71 7.76, 21.38 5.2, 23.65 2.99 M23.96 8.89 C24.57 8.15, 25.49 6.72, 26.75 4.77 M24.2 9.14 C25.16 7.91, 26.32 6.35, 27.27 5.21 M31.58 6.25 C31.58 6.25, 31.58 6.25, 31.58 6.25 M31.58 6.25 C31.58 6.25, 31.58 6.25, 31.58 6.25 M0.05 6.04 C0.05 6.04, 0.05 6.04, 0.05 6.04 M0.05 6.04 C0.05 6.04, 0.05 6.04, 0.05 6.04 M9.21 8.46 C7.51 6.52, 5.4 5.12, 3.75 4.78 M8.6 8.5 C7.63 7.11, 6.91 6.31, 3.93 4.41 M18.32 10.06 C15.07 8.67, 13.73 5.63, 9.28 1.86 M17.71 10.26 C14.21 7.39, 10.92 4.83, 8.64 2.16 M21.7 8.8 C19.24 6.3, 14.47 3.88, 12.65 2.03 M21.58 8.55 C19.59 7.22, 17.51 5.51, 13.73 1.72 M27.58 8.23 C23.67 5.2, 21.59 2.65, 16.81 -0.29 M26.04 8.11 C24.11 5.2, 21.99 3.19, 17.16 -0.35 M31.16 6.9 C30.65 6.24, 29.46 5.53, 27.52 3.65 M31.29 6.89 C30.38 6.07, 29.67 5.46, 27.49 3.41" stroke="#ffec99" stroke-width="0.5" fill="none"></path><path d="M15.99 0.09 C22.5 3.42, 26.67 2.66, 32.77 7.31 M16.71 0.06 C22.28 2.37, 26.29 3.51, 33.68 5.57 M34.42 5.51 C29.1 5.64, 25.19 9.27, 17.25 12.32 M33.12 5.81 C27.83 8.26, 21.66 9.23, 17.46 11.35 M17.93 10.18 C13.71 9.91, 8.8 8.89, -0.28 6.04 M16.99 10.51 C10.64 8.82, 5.38 7.93, 0.31 5.52 M1.33 7.52 C7.57 2.05, 14.49 2.65, 16.68 -1.02 M0.19 5.16 C3.81 4.3, 8.26 2.75, 17.33 0.13" stroke="#1e1e1e" stroke-width="1" fill="none"></path></g><g stroke-linecap="round" transform="translate(384.28602362709285 384.0674164555894) rotate(0 16.55126065120635 5.403117108206061)"><path d="M-0.31 6.36 C-0.31 6.36, -0.31 6.36, -0.31 6.36 M-0.31 6.36 C-0.31 6.36, -0.31 6.36, -0.31 6.36 M3.95 7.24 C4.53 6.65, 6.02 5.01, 7.68 2.68 M4.07 7.32 C4.62 6.38, 5.9 5.69, 7.72 3.19 M7.52 8.92 C9.68 6.86, 11.52 4.6, 15.89 0.59 M8.51 8.88 C9.35 6.92, 11.63 4.85, 15.68 -0.09 M12.58 9.17 C14.02 7.55, 16.95 6.14, 18.47 1.24 M13.09 9.78 C14.96 7.18, 17.57 4.19, 19.17 2.21 M16.62 10.7 C18.45 9.15, 20.52 5.52, 22.6 4.14 M17.25 11.29 C18.45 8.77, 21.26 6.55, 23.69 3.07 M23.54 9.17 C25.37 7.2, 26.19 6.32, 27.04 5.15 M24.13 8.89 C25.01 7.87, 26.23 6.32, 27.34 5.36 M31.58 6.25 C31.58 6.25, 31.58 6.25, 31.58 6.25 M31.58 6.25 C31.58 6.25, 31.58 6.25, 31.58 6.25 M0.05 6.04 C0.05 6.04, 0.05 6.04, 0.05 6.04 M0.05 6.04 C0.05 6.04, 0.05 6.04, 0.05 6.04 M9.29 8.06 C6.9 6.98, 6.23 5.53, 4.05 4.3 M8.89 8.32 C7.16 6.94, 5.37 5.28, 4.47 4.53 M16.83 11.08 C15.86 7.26, 11.33 6.13, 8.18 3.38 M17.9 10.96 C14.63 8.87, 12.3 7.02, 8.9 2.66 M22.58 7.88 C19.61 6.93, 17.17 4.93, 12.92 1.12 M21.21 8.42 C19.37 7.01, 17.77 4.67, 13.15 1.4 M26.13 7.08 C22.97 4.13, 18.94 2.19, 16.52 0.65 M26.6 7.28 C23.42 4.81, 20.65 2.41, 17.35 -0.55 M31.65 6.91 C29.87 5.65, 28.45 4.51, 27.54 3.08 M31.37 6.59 C29.66 5.49, 28.33 4.31, 27.45 3.31" stroke="#b2f2bb" stroke-width="0.5" fill="none"></path><path d="M17.82 -1.38 C21.47 3.3, 25.71 4.59, 32.62 6.42 M16.97 -0.01 C21.99 1.64, 27.75 3.45, 33.72 5.5 M33.48 7.41 C28.25 8.95, 25.86 7.47, 17.86 12.46 M33.36 6.48 C28.43 7.8, 23.01 8.74, 16.26 10.19 M16.65 12.16 C14.28 8.19, 11.06 9.69, -0.49 4.56 M16.22 10.67 C11.41 9.82, 6.27 7.51, 0.62 6.43 M-1.66 6.53 C2.8 6.1, 7.45 4.93, 17.07 1.61 M0.29 5.36 C5.77 4.82, 11.21 3.18, 17.3 0.3" stroke="#2f9e44" stroke-width="1" fill="none"></path></g><g stroke-linecap="round" transform="translate(384.28602362709285 381.46035784036394) rotate(0 16.55126065120635 5.403117108206061)"><path d="M-0.31 6.36 C-0.31 6.36, -0.31 6.36, -0.31 6.36 M-0.31 6.36 C-0.31 6.36, -0.31 6.36, -0.31 6.36 M3.79 7.12 C5.68 6.04, 6.53 3.86, 7.69 2.36 M3.87 7.24 C4.77 6.67, 5.9 5.13, 8.2 2.91 M8.68 7.88 C11.62 4.7, 14.35 3, 15.88 -0.79 M8.64 8.18 C11.06 5.89, 13.36 2.48, 15.2 0.28 M12.15 9.07 C14.76 7.79, 17.57 4.42, 18.33 3 M12.76 9.39 C14.5 7.79, 15.83 6.3, 19.3 2.32 M16.9 10.13 C20.35 7.18, 21.72 4.15, 24.45 3.21 M17.49 10.39 C19.67 8.36, 22.17 5.16, 23.38 3.6 M24.23 9.13 C24.78 7.46, 26.42 6.11, 27.26 5.31 M23.95 8.87 C25.29 7.7, 26.11 6.43, 27.47 5.08 M31.58 6.25 C31.58 6.25, 31.58 6.25, 31.58 6.25 M31.58 6.25 C31.58 6.25, 31.58 6.25, 31.58 6.25 M0.05 6.04 C0.05 6.04, 0.05 6.04, 0.05 6.04 M0.05 6.04 C0.05 6.04, 0.05 6.04, 0.05 6.04 M8.5 7.76 C7.11 7.15, 5.31 5.62, 4.15 4.86 M8.76 8.48 C7.52 7.24, 5.98 6.14, 4.37 4.27 M17.95 11.46 C14.24 7.56, 13.17 6.6, 9.06 2.16 M17.83 10.13 C14.85 7.82, 12.27 6.32, 8.35 2.37 M20.6 9.02 C19.22 6.68, 16.64 4.39, 12.75 1.01 M21.13 8.73 C19.05 6.88, 15.9 4.17, 13.03 1.89 M25.73 7.53 C23.01 4.57, 21.42 2.63, 18.12 -0.09 M25.93 7.53 C23.08 5.14, 20.31 2.99, 16.91 0.12 M31.5 6.58 C30.02 5.35, 28.69 4.5, 27.17 3.78 M31.18 6.46 C30.44 5.79, 29.6 5.11, 27.41 3.4" stroke="#b2f2bb" stroke-width="0.5" fill="none"></path><path d="M15.62 0.12 C24.47 2.11, 29.92 3.74, 33.52 6.3 M16.99 -0.17 C22.68 2.7, 28.55 5.07, 32.61 5.64 M34.52 5.35 C31.43 8.14, 25.42 8.86, 18.66 10.62 M33.58 5.97 C28.3 6.81, 22.64 8.42, 16.39 9.98 M18.36 11.56 C9.02 9.93, 5.05 6.64, -1.44 6.08 M16.86 10.36 C13.69 9.18, 9.09 9.15, 0.43 5.34 M0.53 4.97 C6.29 4.23, 11.31 2.81, 18.61 0.09 M-0.64 6.61 C6.51 4.72, 12.61 2.07, 17.3 -0.58" stroke="#2f9e44" stroke-width="1" fill="none"></path></g><g stroke-linecap="round" transform="translate(384.28602362709285 377.74874534853006) rotate(0 16.55126065120635 5.403117108206061)"><path d="M-0.31 6.36 C-0.31 6.36, -0.31 6.36, -0.31 6.36 M-0.31 6.36 C-0.31 6.36, -0.31 6.36, -0.31 6.36 M3.67 7.72 C5.78 5.38, 6.79 3.73, 7.37 2.53 M3.79 7.28 C5.22 6.43, 5.67 5.56, 7.93 3.12 M7.64 9.3 C10 6.5, 13.82 3.02, 14.49 1.09 M7.95 8.59 C10.8 5.79, 12.54 3.46, 15.56 0.28 M12.05 9.74 C14.38 9.08, 14.61 5.72, 20.09 1.32 M12.37 10.05 C13.95 8.16, 15.66 6.17, 19.41 2.55 M16.33 11.6 C17.61 8.92, 18.8 8.55, 23.51 4.07 M16.58 11.01 C19.64 8.4, 21.52 5.46, 23.91 3.5 M24.19 8.59 C24.92 7.83, 25.97 6.4, 27.42 5.33 M23.93 9.13 C25.1 7.61, 26.18 6.66, 27.2 5.28 M31.58 6.25 C31.58 6.25, 31.58 6.25, 31.58 6.25 M31.58 6.25 C31.58 6.25, 31.58 6.25, 31.58 6.25 M0.05 6.04 C0.05 6.04, 0.05 6.04, 0.05 6.04 M0.05 6.04 C0.05 6.04, 0.05 6.04, 0.05 6.04 M8.2 8.13 C7.66 6.8, 6.28 6.26, 4.71 4.4 M8.92 8.48 C7.68 7.33, 6.62 6.42, 4.12 4.14 M18.33 9.49 C13.97 8.51, 12.48 7.12, 7.85 2.72 M17 10.84 C13.35 7.97, 10.64 4.3, 8.05 2.58 M21.73 8.86 C19.64 7.15, 17.73 5.3, 12.63 1.73 M21.44 8.88 C20.24 6.8, 18.1 5.62, 13.51 1.42 M26.18 6.87 C22.09 4.82, 18.99 2.74, 17.38 -0.07 M26.18 7.19 C23.33 4.68, 20.78 2.38, 17.58 0.14 M31.17 6.75 C29.65 5.54, 28.56 4, 27.88 3.08 M31.05 6.72 C30.05 5.82, 29.08 4.72, 27.5 3.19" stroke="#b2f2bb" stroke-width="0.5" fill="none"></path><path d="M17.12 1.7 C21.94 3.33, 26.3 4.18, 33.41 7.21 M16.83 -0.28 C22.21 1.39, 27.08 3.03, 32.74 5.18 M32.45 7.58 C28.18 6.81, 21.86 11.41, 16.81 11.2 M33.07 6.41 C27.44 7.5, 22.63 8.39, 16.18 11.47 M17.75 9.25 C13.74 10.65, 8.02 7.1, 0.08 4.61 M16.55 11.26 C11.36 8.9, 7.12 8.23, -0.66 5.87 M-1.03 7.44 C4.74 5.83, 9.93 4.1, 17.09 0.86 M0.61 6.56 C5.08 5.38, 8.75 3.43, 16.42 0.44" stroke="#2f9e44" stroke-width="1" fill="none"></path></g><g stroke-linecap="round" transform="translate(384.28602362709285 374.06619184854935) rotate(0 16.55126065120635 5.403117108206061)"><path d="M-0.31 6.36 C-0.31 6.36, -0.31 6.36, -0.31 6.36 M-0.31 6.36 C-0.31 6.36, -0.31 6.36, -0.31 6.36 M4.27 7.71 C4.82 5.91, 6.05 4.3, 7.55 2.59 M3.83 7.73 C5.32 5.83, 6.79 4.6, 8.13 3.1 M9.07 7.63 C10.8 7.09, 11.87 3.83, 16.37 0.11 M8.36 9 C10.29 6.02, 12.68 3.18, 15.56 -0.24 M12.72 10.04 C15.52 6.78, 15.6 6.22, 18.41 1.52 M13.03 9.47 C15.43 6.79, 17.73 4.15, 19.64 1.69 M17.8 10.01 C18.4 7.91, 21.32 6.86, 24.38 3.64 M17.21 11.26 C19.42 8.37, 21.3 5.96, 23.81 3.43 M23.65 8.74 C24.84 7.88, 25.37 7.45, 27.44 5.28 M24.19 8.99 C25.1 7.62, 26.59 6.11, 27.39 5.29 M31.58 6.25 C31.58 6.25, 31.58 6.25, 31.58 6.25 M31.58 6.25 C31.58 6.25, 31.58 6.25, 31.58 6.25 M0.05 6.04 C0.05 6.04, 0.05 6.04, 0.05 6.04 M0.05 6.04 C0.05 6.04, 0.05 6.04, 0.05 6.04 M8.57 8.38 C6.45 6.54, 5.1 5.64, 4.25 4.1 M8.92 8.44 C7.14 7.17, 5.62 5.39, 3.99 4.23 M16.36 9.46 C15.07 8.43, 13.46 6.09, 8.4 3.83 M17.71 10.17 C14.35 7.98, 10.33 4.08, 8.26 2.06 M21.57 8.71 C18.17 5.66, 14.5 2.49, 13.35 0.52 M21.59 9.19 C19.04 6.95, 17.29 5.54, 13.05 1.93 M25.52 6.72 C23.92 4.72, 22.19 3.4, 17.39 -0.02 M25.85 7.5 C22.87 5.09, 19.98 2.7, 17.6 0.24 M31.34 6.45 C29.88 5.49, 28.11 4.6, 27.18 3.33 M31.31 6.54 C30.11 5.5, 28.68 4.46, 27.29 3.56" stroke="#b2f2bb" stroke-width="0.5" fill="none"></path><path d="M18.7 0.04 C23.93 1.59, 28.56 4.46, 34.31 5.89 M16.72 0.48 C21.41 2.43, 26.07 3.23, 32.28 6.65 M34.69 7.12 C26.82 8.35, 24.42 8.85, 17.4 10.85 M33.51 5.2 C27.75 6.84, 21.85 8.36, 17.66 10.39 M15.44 11.78 C13.12 9.04, 6.01 8.27, -1.39 6.18 M17.46 10.39 C13.01 10.32, 10.24 8.02, -0.13 5.9 M1.44 5.78 C5.13 4.92, 8.65 3.7, 17.86 -0.92 M0.56 6.86 C6.45 4.19, 11.65 1.31, 17.44 0.44" stroke="#2f9e44" stroke-width="1" fill="none"></path></g></svg>